<?xml version="1.0" encoding="UTF-8"?>
<svg id="Layer_1" xmlns="http://www.w3.org/2000/svg" version="1.1" viewBox="0 0 1170.6 680.2">
  <!-- Generator: Adobe Illustrator 29.3.0, SVG Export Plug-In . SVG Version: 2.1.0 Build 146)  -->
  <defs>
    <style>
      .st0 {
        stroke: #de367d;
      }

      .st0, .st1, .st2, .st3, .st4, .st5, .st6, .st7, .st8, .st9 {
        stroke-miterlimit: 10;
      }

      .st0, .st1, .st3, .st4, .st5, .st6, .st9 {
        fill: none;
      }

      .st0, .st3, .st4, .st5 {
        stroke-width: 2px;
      }

      .st10 {
        fill-rule: evenodd;
      }

      .st10, .st11 {
        fill: #fff;
      }

      .st1, .st2, .st4, .st9 {
        stroke: #210f61;
      }

      .st1, .st2, .st6, .st7, .st8 {
        stroke-width: .5px;
      }

      .st12 {
        fill: #001fff;
      }

      .st2, .st13, .st7 {
        fill: #210f61;
      }

      .st14 {
        fill: #3b5c80;
      }

      .st15 {
        isolation: isolate;
      }

      .st3 {
        stroke: #3b5c80;
      }

      .st5 {
        stroke: #001fff;
      }

      .st6, .st7, .st8 {
        stroke: #fff;
      }

      .st16 {
        fill: #de367d;
      }

      .st8 {
        fill: #777393;
      }

      .st9 {
        stroke-width: 3px;
      }
    </style>
  </defs>
  <g>
    <line class="st5" x1="450.7" y1="228.6" x2="450.7" y2="129.7"/>
    <line class="st3" x1="461.3" y1="228.6" x2="461.3" y2="129.7"/>
    <line class="st0" x1="471.8" y1="228.6" x2="471.8" y2="129.7"/>
    <line class="st4" x1="481.8" y1="228.6" x2="481.8" y2="129.7"/>
  </g>
  <g>
    <g>
      <path class="st7" d="M516.9,547h-88.3v84.7h0c0,4.6,19.6,8.4,43.8,8.4s43.8-3.8,43.8-8.4,0,0,0,0h.6v-84.7h.1Z"/>
      <ellipse class="st8" cx="472.5" cy="547" rx="43.8" ry="8.4"/>
    </g>
    <path class="st6" d="M428.6,573.3s40.8,16.3,88.3,0"/>
    <path class="st6" d="M428.6,603.1s40.8,16.3,88.3,0"/>
    <circle class="st11" cx="438.6" cy="564.7" r="2.1"/>
    <circle class="st11" cx="438.6" cy="591.8" r="2.1"/>
    <circle class="st11" cx="438.6" cy="621.7" r="2.1"/>
  </g>
  <g>
    <g>
      <path class="st7" d="M705.5,547h-88.3v84.7h0c0,4.6,19.6,8.4,43.8,8.4s43.8-3.8,43.8-8.4,0,0,0,0h.6v-84.7h.1Z"/>
      <ellipse class="st8" cx="661" cy="547" rx="43.8" ry="8.4"/>
    </g>
    <path class="st6" d="M617.2,573.3s40.8,16.3,88.3,0"/>
    <path class="st6" d="M617.2,603.1s40.8,16.3,88.3,0"/>
    <circle class="st11" cx="627.1" cy="564.7" r="2.1"/>
    <circle class="st11" cx="627.1" cy="591.8" r="2.1"/>
    <circle class="st11" cx="627.1" cy="621.7" r="2.1"/>
  </g>
  <g>
    <g>
      <path class="st7" d="M893.5,547h-88.3v84.7h0c0,4.6,19.6,8.4,43.8,8.4s43.8-3.8,43.8-8.4,0,0,0,0h.6v-84.7h.1Z"/>
      <ellipse class="st8" cx="849.1" cy="547" rx="43.8" ry="8.4"/>
    </g>
    <path class="st6" d="M805.3,573.3s40.8,16.3,88.3,0"/>
    <path class="st6" d="M805.3,603.1s40.8,16.3,88.3,0"/>
    <circle class="st11" cx="815.2" cy="564.7" r="2.1"/>
    <circle class="st11" cx="815.2" cy="591.8" r="2.1"/>
    <circle class="st11" cx="815.2" cy="621.7" r="2.1"/>
  </g>
  <g>
    <g>
      <path class="st7" d="M1082.5,547h-88.3v84.7h0c0,4.6,19.6,8.4,43.8,8.4s43.8-3.8,43.8-8.4,0,0,0,0h.6v-84.7h.1Z"/>
      <ellipse class="st8" cx="1038" cy="547" rx="43.8" ry="8.4"/>
    </g>
    <path class="st6" d="M994.2,573.3s40.8,16.3,88.3,0"/>
    <path class="st6" d="M994.2,603.1s40.8,16.3,88.3,0"/>
    <circle class="st11" cx="1004.1" cy="564.7" r="2.1"/>
    <circle class="st11" cx="1004.1" cy="591.8" r="2.1"/>
    <circle class="st11" cx="1004.1" cy="621.7" r="2.1"/>
  </g>
  <rect class="st2" x="397.1" y="44.9" width="138.3" height="113"/>
  <g>
    <line class="st5" x1="645.3" y1="228.6" x2="645.3" y2="129.7"/>
    <line class="st3" x1="655.9" y1="228.6" x2="655.9" y2="129.7"/>
    <line class="st0" x1="666.4" y1="228.6" x2="666.4" y2="129.7"/>
    <line class="st4" x1="676.5" y1="228.6" x2="676.5" y2="129.7"/>
  </g>
  <rect class="st2" x="591.8" y="44.9" width="138.3" height="113"/>
  <g>
    <line class="st5" x1="833.5" y1="228.6" x2="833.5" y2="129.7"/>
    <line class="st3" x1="844.1" y1="228.6" x2="844.1" y2="129.7"/>
    <line class="st0" x1="854.6" y1="228.6" x2="854.6" y2="129.7"/>
    <line class="st4" x1="864.7" y1="228.6" x2="864.7" y2="129.7"/>
  </g>
  <rect class="st2" x="780" y="44.9" width="138.3" height="113"/>
  <g>
    <line class="st5" x1="1022.8" y1="228.6" x2="1022.8" y2="129.7"/>
    <line class="st3" x1="1033.5" y1="228.6" x2="1033.5" y2="129.7"/>
    <line class="st0" x1="1043.9" y1="228.6" x2="1043.9" y2="129.7"/>
    <line class="st4" x1="1054" y1="228.6" x2="1054" y2="129.7"/>
  </g>
  <rect class="st2" x="969.3" y="44.9" width="138.3" height="113"/>
  <path class="st1" d="M470.9,549.1"/>
  <g>
    <path class="st5" d="M438.7,477.9c1.8,20.1,8.9,40.1,21.8,55.7,3.9,4.7,10.8,8.9,11.9,15.2"/>
    <path class="st5" d="M506.3,477.9c-1.8,20.1-8.9,40.1-21.8,55.7-3.9,4.7-10.8,8.9-11.9,15.2"/>
    <path class="st5" d="M451.6,477.9c1.8,18.2,6.1,36.7,14.4,53.1s6.8,9.5,6.4,15.3"/>
    <path class="st5" d="M492.9,477.8c-1.7,18.5-6,37.3-14.3,54.1-2.5,5-7.1,9.9-6.6,15.8"/>
    <ellipse class="st12" cx="472.5" cy="549" rx="1.6" ry=".6"/>
  </g>
  <g>
    <path class="st3" d="M627.2,477.9c1.8,20.1,8.9,40.1,21.8,55.7,3.9,4.7,10.8,8.9,11.9,15.2"/>
    <path class="st3" d="M694.8,477.9c-1.8,20.1-8.9,40.1-21.8,55.7-3.9,4.7-10.8,8.9-11.9,15.2"/>
    <path class="st3" d="M640.1,477.9c1.8,18.2,6.1,36.7,14.4,53.1,2.5,4.9,6.8,9.5,6.4,15.3"/>
    <path class="st3" d="M681.4,477.8c-1.7,18.5-6,37.3-14.3,54.1s-7.1,9.9-6.6,15.8"/>
    <ellipse class="st14" cx="661" cy="549" rx="1.6" ry=".6"/>
  </g>
  <g>
    <path class="st0" d="M815.6,477.9c1.8,20.1,8.9,40.1,21.8,55.7,3.9,4.7,10.8,8.9,11.9,15.2"/>
    <path class="st0" d="M883.2,477.9c-1.8,20.1-8.9,40.1-21.8,55.7-3.9,4.7-10.8,8.9-11.9,15.2"/>
    <path class="st0" d="M828.5,477.9c1.8,18.2,6.1,36.7,14.4,53.1,2.5,4.9,6.8,9.5,6.4,15.3"/>
    <path class="st0" d="M869.8,477.8c-1.7,18.5-6,37.3-14.3,54.1s-7.1,9.9-6.6,15.8"/>
    <ellipse class="st16" cx="849.4" cy="549" rx="1.6" ry=".6"/>
  </g>
  <g>
    <path class="st4" d="M1004.5,477.9c1.8,20.1,8.9,40.1,21.8,55.7,3.9,4.7,10.8,8.9,11.9,15.2"/>
    <path class="st4" d="M1072.1,477.9c-1.8,20.1-8.9,40.1-21.8,55.7-3.9,4.7-10.8,8.9-11.9,15.2"/>
    <path class="st4" d="M1017.4,477.9c1.8,18.2,6.1,36.7,14.4,53.1s6.8,9.5,6.4,15.3"/>
    <path class="st4" d="M1058.8,477.8c-1.7,18.5-6,37.3-14.3,54.1-2.5,5-7.1,9.9-6.6,15.8"/>
    <ellipse class="st13" cx="1038.3" cy="549" rx="1.6" ry=".6"/>
  </g>
  <g>
    <g>
      <g>
        <path class="st2" d="M924.2,381c3.8-.3,7.1,2.6,7.4,6.3.3,3.8-2.6,7.1-6.3,7.4-3.8.3-7.1-2.6-7.4-6.3-.3-3.8,2.6-7.1,6.3-7.4Z"/>
        <path class="st2" d="M921.5,235.5c4.5-.3,8.4,3,8.7,7.5s-3,8.4-7.5,8.7-8.4-3-8.7-7.5,3-8.4,7.5-8.7Z"/>
        <path class="st2" d="M914.4,312.1c3.8-.3,7.1,2.6,7.4,6.3.3,3.8-2.6,7.1-6.3,7.4-3.8.3-7.1-2.6-7.4-6.3-.3-3.8,2.6-7.1,6.3-7.4Z"/>
        <path class="st2" d="M866.4,402.6c8.5-.6,15.8,5.7,16.4,14.2.6,8.5-5.7,15.8-14.2,16.4s-15.8-5.7-16.4-14.2c-.6-8.5,5.7-15.8,14.2-16.4Z"/>
        <path class="st2" d="M853.3,276c3.8-.3,7.1,2.6,7.4,6.4.3,3.8-2.6,7.1-6.4,7.4-3.8.3-7.1-2.6-7.4-6.4-.3-3.8,2.6-7.1,6.4-7.4Z"/>
        <path class="st2" d="M779,303.1c3.8-.3,7.1,2.6,7.4,6.4.3,3.8-2.6,7.1-6.4,7.4-3.8.3-7.1-2.6-7.4-6.4-.3-3.8,2.6-7.1,6.4-7.4Z"/>
        <path class="st2" d="M829.7,228.6c1.1,1,2.7,1.5,4.3,1.4,1.3,0,2.5-.6,3.4-1.4h-7.7Z"/>
        <path class="st2" d="M1021.7,378.4c5.6-.4,10.6,3.8,11,9.5.4,5.6-3.8,10.6-9.5,11-5.7.4-10.6-3.8-11-9.5s3.8-10.6,9.5-11h0Z"/>
        <path class="st2" d="M811.2,452.1c5.7-.4,10.6,3.8,11,9.5.4,5.6-3.8,10.6-9.5,11s-10.6-3.8-11-9.5c-.4-5.6,3.8-10.6,9.5-11Z"/>
        <path class="st2" d="M815.3,365.8c-3.8-2.3-5-7.3-2.7-11.1,2.3-3.8,7.3-5,11.1-2.7s5,7.3,2.7,11.1c-2.3,3.8-7.3,5-11.1,2.7Z"/>
        <path class="st2" d="M735.3,467.2c-7.3-4.4-9.6-13.9-5.1-21.2,4.4-7.3,13.9-9.6,21.2-5.1,7.3,4.4,9.6,13.9,5.1,21.2-4.4,7.3-13.9,9.6-21.2,5.1Z"/>
        <path class="st2" d="M1018.7,310c2.9,2.5,3.2,6.9.7,9.8s-6.9,3.2-9.8.7c-2.9-2.5-3.2-6.9-.7-9.8s6.9-3.2,9.8-.7Z"/>
        <path class="st2" d="M1116.9,288.3c2.5,2.1,2.7,5.8.6,8.3s-5.8,2.7-8.3.6c-2.4-2.1-2.7-5.8-.6-8.3s5.8-2.7,8.3-.6Z"/>
        <path class="st2" d="M1088.3,229.9c-1-.9-2.1-1.5-3.3-2h-9c-1.7.7-3.2,1.8-4.5,3.2-4.3,5-3.8,12.6,1.3,16.9,5,4.3,12.6,3.7,16.9-1.3s3.8-12.6-1.2-16.9l-.2.1Z"/>
        <path class="st2" d="M1011,309.1c3.4-1.8,7.6-.5,9.3,2.9,1.8,3.4.5,7.6-2.9,9.3-3.4,1.8-7.6.5-9.3-2.9-1.8-3.4-.5-7.6,2.9-9.4v.1Z"/>
        <path class="st2" d="M1076.3,347c1-5.6,6.4-9.3,11.9-8.2,5.6,1,9.3,6.4,8.2,12-1,5.6-6.4,9.3-12,8.2-5.6-1-9.3-6.4-8.2-11.9l.1-.1Z"/>
        <path class="st2" d="M957.3,443.8c-2-8.3,3.1-16.6,11.3-18.6,8.3-2,16.6,3.1,18.6,11.3,2,8.3-3.1,16.6-11.3,18.6-8.3,2-16.6-3.1-18.6-11.3Z"/>
      </g>
      <g>
        <path class="st2" d="M918.7,391.2c0-.1-37.7,19.5-37.5,19.8l-.2-.4c.1.3,37.7-19.5,37.6-19.6v.2h.1Z"/>
        <path class="st2" d="M931.6,387.8c0,.1,80.5.8,80.5.6v.3c0-.2-80.5-.8-80.5-.7v-.2h0Z"/>
        <path class="st2" d="M951,479.1c-11.8-41-24.3-84.6-24.2-84.6h-.2s12.6,43.7,24.4,84.6h0Z"/>
        <path class="st2" d="M929.5,392.9c-.1,0,32.4,36,32.6,35.8l-.3.3c.2-.2-32.3-36-32.4-35.9l.2-.2h-.1Z"/>
        <path class="st2" d="M921.5,251.7c-.2,0-5.9,60.5-5.8,60.5h-.2c.1,0,5.9-60.5,5.8-60.5h.3-.1Z"/>
        <path class="st2" d="M915.2,247.7c0-.1-55.4,31.7-55.3,31.8v-.2c0,.1,55.2-31.7,55.2-31.8v.2h.1Z"/>
        <path class="st2" d="M928.6,248.5c0,.1,80.1,62.5,80.2,62.4v.2c0-.1-80.3-62.5-80.4-62.4l.2-.2h0Z"/>
        <path class="st2" d="M930.2,243.2c0,.2,138.3-3.9,138.3-4.1v.4c0-.2-138.3,3.8-138.3,4v-.3h0Z"/>
        <path class="st2" d="M928.6,248.5c0,.1,80.2,62.5,80.3,62.4v.2c0-.1-80.3-62.5-80.4-62.4l.2-.2h-.1Z"/>
        <path class="st2" d="M924.2,251.4c-.2,0,44.1,173.9,44.4,173.8h-.5c.3,0-44.1-173.8-44.2-173.7h.3v-.1Z"/>
        <path class="st2" d="M912.1,325.2c-.1,0-38,78.8-37.7,79l-.4-.2c.3.1,38.1-78.8,37.9-78.9h.2v.1Z"/>
        <path class="st2" d="M909,315.6c0-.1-49.2-29.2-49.2-29.1v-.2c0,.1,49.3,29.2,49.3,29.1v.2h-.1Z"/>
        <path class="st2" d="M908.6,321.7c0-.1-81.6,34-81.6,34.2v-.2c0,.1,81.6-34,81.5-34.1v.2l.1-.1Z"/>
        <path class="st2" d="M909.6,323.3c0-.1-154.2,121.2-154,121.4l-.3-.4c.2.2,154.2-121.1,154.2-121.2v.2h.1Z"/>
        <path class="st2" d="M1063.7,479.1h.3c-35.8-38.2-144.4-155.1-144.3-155.1l-.2.2s108.5,116.4,144.2,155v-.1Z"/>
        <path class="st2" d="M921.7,320c0,.1,154.6,27.2,154.6,27v.3c0-.2-154.6-27.2-154.7-27v-.2l.1-.1Z"/>
        <path class="st2" d="M857.6,406.2c.2-.2-73.7-90.9-73.8-90.8h.2c-.1,0,73.8,90.7,74,90.5l-.4.3Z"/>
        <path class="st2" d="M857.6,406.2c.2-.2-33-41-33.1-40.9l.2-.2c-.1.1,33,41,33.3,40.8l-.4.3h0Z"/>
        <path class="st2" d="M852.8,422.4c0-.3-94.7,27.3-94.6,27.6v-.5c0,.3,94.6-27.3,94.5-27.6v.5h.1Z"/>
        <path class="st2" d="M847.4,285.3c0-.1-61.4,22.2-61.3,22.3v-.2c0,.1,61.3-22.2,61.2-22.3v.2h.1Z"/>
        <path class="st2" d="M851.5,276.4c.1,0-15.9-46.7-16-46.6h.2c-.1,0,15.9,46.6,16.1,46.6h-.3Z"/>
        <path class="st2" d="M793.8,228.6c19.5,17.6,54.9,49.7,54.8,49.7l.2-.2s-35.4-31.9-54.9-49.6h-.1v.1Z"/>
        <path class="st2" d="M851.1,289.2c-.1,0-28.3,62.3-28.1,62.3h-.2c.1,0,28.3-62.4,28.1-62.4h.2v.1Z"/>
        <path class="st2" d="M860.7,283c0,.1,246.5,9.5,246.5,9.4v.2c0-.1-246.5-9.5-246.5-9.4v-.2h0Z"/>
        <path class="st2" d="M860.6,281.5c0,.1,208.1-40.2,208.1-40.4v.4c0-.2-208.1,40.2-208,40.3v-.2l-.1-.1Z"/>
        <path class="st2" d="M783.1,304c.1,0,47.4-74.9,47.3-75h.2c-.1,0-47.4,75-47.3,75.1h-.2v-.1Z"/>
        <path class="st2" d="M773.7,228.6c1.5,20.2,5.3,74.5,5.2,74.5h.2c-.1,0-4-54.3-5.3-74.5h-.2.1Z"/>
        <path class="st2" d="M781.1,316.7c-.1,0,28.7,135.6,28.9,135.6h-.3c.2,0-28.7-135.6-28.8-135.6h.2,0Z"/>
        <path class="st2" d="M784,315.2c-.1,0,30.4,37.4,30.5,37.3l-.2.2c.1-.1-30.4-37.4-30.5-37.3h.2v-.2Z"/>
        <path class="st2" d="M777.9,316.7c-.1,0-30.9,122.4-30.6,122.5h-.5c.3,0,31-122.5,30.8-122.6h.2l.1.1Z"/>
        <path class="st2" d="M842.2,228.6c24,12,165.8,83.5,165.8,83.6v-.2c0,.1-140.9-70.9-165.5-83.4h-.3Z"/>
        <path class="st2" d="M778.4,228.6c9,28.3,38.7,122.6,38.5,122.6h.2c-.1,0-29.8-94.2-38.6-122.6h-.2.1Z"/>
        <path class="st2" d="M770.2,228.6h-.2c-4.4,38.3-24.8,210.2-25.1,210.2h.5c-.3,0,20.1-171.9,24.8-210.2h0Z"/>
        <path class="st2" d="M1019.1,479.1h0c1.2-33.9,2.9-80.2,3.1-80.2h-.3c.1,0-1.5,46.3-2.8,80.2h0Z"/>
        <path class="st2" d="M1021.1,378.4c.2,0-6.1-56.4-6.2-56.4h.2c-.1,0,6.1,56.3,6.3,56.3h-.3v.1Z"/>
        <path class="st2" d="M1026,379c.2,0,50.2-128.9,50-129h.3c-.2,0-50.2,129-50,129.1h-.3v-.1Z"/>
        <path class="st2" d="M995.8,479.1c11.6-39.4,23.8-80.6,23.9-80.6h-.3c.1,0-12,41.2-23.6,80.6h0Z"/>
        <path class="st2" d="M1021.1,378.4c.2,0-6.1-56.4-6.2-56.4h.2c-.1,0,6.1,56.3,6.3,56.3h-.3v.1Z"/>
        <path class="st2" d="M1126.5,399.1c-27.3-2.7-93.9-9.5-93.9-9.6v.3c0-.2,66.6,6.6,93.9,9.4h0v-.1Z"/>
        <path class="st2" d="M1031,383.1c.1.2,46.7-28.7,46.6-28.9l.2.3c-.1-.2-46.7,28.7-46.6,28.9l-.2-.3Z"/>
        <path class="st2" d="M1126.5,416.4c-48.7-13-94.2-25.2-94.1-25.3v.3s45.4,12,94.1,25h0Z"/>
        <path class="st2" d="M1015.4,396.1c-.1-.1-32.5,33-32.2,33.2l-.3-.3c.2.2,32.5-33,32.3-33.1l.2.2h0Z"/>
        <path class="st2" d="M993.1,479.1c-7.2-13.4-13.5-25.4-13.4-25.4l-.4.2c.1,0,6.6,11.8,13.8,25.2h0Z"/>
        <path class="st2" d="M812.5,452.1c.2,0,6.4-85.1,6.3-85.1h.3c-.2,0-6.4,85.2-6.2,85.2h-.3l-.1-.1Z"/>
        <path class="st2" d="M801.7,461.3c0-.2-43.1-5.5-43.1-5.1v-.5c0,.3,43.1,5.5,43.2,5.3v.3h-.1Z"/>
        <path class="st2" d="M753.2,442.2l-.4-.3c.2.2,61.7-76.7,61.6-76.8l.2.2"/>
        <path class="st2" d="M827.4,357c0,.2,180.1-40.3,180-40.4v.2c0-.1-180,40.3-180,40.4v-.2Z"/>
        <path class="st2" d="M1126.5,412c-47.5-40.9-107-92.3-107-92.4v.2s59.5,51.3,107,92.2h0Z"/>
        <path class="st2" d="M1126.5,323.2c-6.6-15.1-11-25.1-10.9-25.1h-.2s4.5,10.1,11.1,25.2h0v-.1Z"/>
        <path class="st2" d="M1126.5,458.5c-57.6-6.8-139-16.5-138.9-16.7v.5c0-.2,81.4,9.4,138.9,16.3h0v-.1Z"/>
        <path class="st2" d="M1126.5,423.7c-6.6-64.8-12.7-125.1-12.7-125.1h-.2s6.2,60.4,12.9,125.2h0v-.1Z"/>
        <path class="st2" d="M1123.7,479.1c-17.5-96.9-41.1-228.4-40.9-228.4h-.4c.1,0,23.9,131.5,41.3,228.4h0Z"/>
        <path class="st2" d="M1017.2,479.1c-19.4-16.8-33.2-28.9-33.2-29l-.3.4s14,11.9,33.4,28.6h.1Z"/>
        <path class="st2" d="M1064.8,479.1h0c6.4-98.5,14.9-228.2,15.1-228.2h-.4c.1,0-8.3,129.7-14.7,228.2Z"/>
        <path class="st2" d="M1076.8,479.1c-13.3-34.5-60.2-157.4-60-157.5h-.2c.1,0,46.9,122.7,60,157.5h.3-.1Z"/>
        <path class="st2" d="M1099.3,479.1c6.7-11.6,18-31,27.2-46.7h0c-9.2,15.8-20.6,35.2-27.4,46.7h.2Z"/>
        <path class="st2" d="M1020.9,313.6c0,.1,86.5-19.5,86.5-19.6v.2c0-.1-86.4,19.5-86.4,19.6v-.2h-.1Z"/>
        <path class="st2" d="M1018.7,309.9c.1,0,54-61.9,53.8-62.1l.3.2c-.2-.2-54,61.9-53.9,62h-.2v-.1Z"/>
        <path class="st2" d="M1020.5,318c0,.1,56.6,26.6,56.7,26.4v.3c0-.2-56.7-26.6-56.7-26.5v-.2h0Z"/>
        <path class="st2" d="M1110,287.8s-23.3-38.7-23.5-38.6l.3-.2c-.2.1,23.3,38.7,23.4,38.7h-.2v.1Z"/>
        <path class="st2" d="M1107.4,294.2c0-.1-86.5,19.5-86.4,19.6v-.2c0,.1,86.4-19.5,86.4-19.6v.2Z"/>
        <path class="st2" d="M1126.5,338.5c-6.2-21.1-11.7-40.1-11.6-40.1h-.2s5.6,19,11.8,40.1h0Z"/>
        <path class="st2" d="M1110.7,298.1c-.1,0-19.9,41.5-19.7,41.6h-.3c.2,0,19.9-41.6,19.8-41.7h.2v.1Z"/>
        <path class="st2" d="M1126.5,308c-5.9-6.8-9.5-10.8-9.4-10.8h-.1c0,.1,3.6,4.2,9.6,11h0l-.1-.2Z"/>
        <path class="st2" d="M1072.7,248.1c-.2-.2-54,61.9-53.9,62h-.2c.1,0,54-62,53.8-62.2l.3.2Z"/>
        <path class="st2" d="M1081.3,250.9c-.2,0,4.5,87.8,4.7,87.8h-.3c.2,0-4.6-87.8-4.8-87.8h.4Z"/>
        <path class="st2" d="M1074.9,249.5c-.2-.1-95.5,177-95.2,177.2l-.4-.2c.3.1,95.5-177,95.3-177.1l.3.2v-.1Z"/>
        <path class="st2" d="M972.6,479.1v-23.5h-.5c.1,0,.2,10,.4,23.5h.1Z"/>
        <path class="st2" d="M937.1,479.1c11.4-12.6,24.8-27.4,25-27.3l-.3-.3c.1.1-13.3,15-24.6,27.6h-.1Z"/>
        <path class="st2" d="M1020.5,318c0,.1,56.5,26.6,56.6,26.4v.3c0-.2-56.7-26.6-56.7-26.5v-.2h.1Z"/>
        <path class="st2" d="M1126.5,384.7c-13.5-12-32.4-28.9-32.3-29l-.2.2s19.1,16.8,32.5,28.8h0Z"/>
      </g>
      <g>
        <path class="st2" d="M568.2,353.7c-2.7,2.7-7,2.7-9.7,0s-2.7-7,0-9.7,7-2.7,9.7,0,2.7,7,0,9.7Z"/>
        <path class="st2" d="M665.3,462.2c-3.2,3.2-8.3,3.2-11.5,0s-3.2-8.3,0-11.5,8.3-3.2,11.5,0,3.2,8.3,0,11.5Z"/>
        <path class="st2" d="M620.7,399.5c-2.7,2.7-7,2.7-9.7,0s-2.7-7,0-9.7,7-2.7,9.7,0,2.7,7,0,9.7Z"/>
        <path class="st2" d="M598,299.5c-6,6-15.7,6-21.7,0s-6-15.7,0-21.7,15.7-6,21.7,0,6,15.7,0,21.7Z"/>
        <path class="st2" d="M690.5,387c-2.7,2.7-7.1,2.7-9.8,0s-2.7-7.1,0-9.8c2.7-2.7,7.1-2.7,9.8,0s2.7,7.1,0,9.8Z"/>
        <path class="st2" d="M729.2,317.9c-2.7,2.7-7.1,2.7-9.8,0s-2.7-7.1,0-9.8c2.7-2.7,7.1-2.7,9.8,0s2.7,7.1,0,9.8Z"/>
        <path class="st2" d="M743.4,417.5c-2.3,2.3-6,2.3-8.3,0s-2.3-6,0-8.3,6-2.3,8.3,0,2.3,6,0,8.3Z"/>
        <path class="st2" d="M803.9,393.2c-4.7,4.7-12.2,4.7-16.9,0s-4.7-12.2,0-16.9c4.7-4.7,12.3-4.7,16.9,0,4.7,4.7,4.7,12.2,0,16.9Z"/>
        <path class="st2" d="M496.2,419.3c-4,4-10.5,4-14.5,0s-4-10.5,0-14.5,10.5-4,14.5,0,4,10.5,0,14.5Z"/>
        <path class="st2" d="M411.2,313.1c-4,4-10.5,4-14.5,0s-4-10.5,0-14.5,10.5-4,14.5,0,4,10.5,0,14.5Z"/>
        <path class="st2" d="M597.2,228.6c1.9.6,4,.6,5.9,0h-5.9Z"/>
        <path class="st2" d="M660.7,294.1c4.4-.7,8.6,2.3,9.3,6.7.7,4.4-2.3,8.6-6.7,9.3-4.4.7-8.6-2.3-9.3-6.7-.7-4.4,2.3-8.6,6.7-9.3Z"/>
        <path class="st2" d="M543,469.2c-3.8,0-6.9-3.1-6.9-6.9s3.1-6.9,6.9-6.9,6.9,3.1,6.9,6.9-3.1,6.9-6.9,6.9Z"/>
        <path class="st2" d="M423,249.5c1.9,3.3.8,7.5-2.5,9.4s-7.5.8-9.5-2.5c-1.9-3.3-.8-7.5,2.5-9.5,3.3-1.9,7.5-.8,9.5,2.5v.1Z"/>
        <path class="st2" d="M504.1,249.2c2.9,4.9,1.2,11.2-3.7,14-4.9,2.9-11.2,1.2-14-3.7-2.9-4.9-1.2-11.2,3.7-14,4.9-2.9,11.2-1.2,14,3.7Z"/>
        <path class="st2" d="M549.5,464.8c-1.4,3.6-5.4,5.3-9,3.9s-5.3-5.4-3.9-9c1.4-3.6,5.4-5.3,9-3.9s5.3,5.4,3.9,9Z"/>
        <path class="st2" d="M384.5,477.6h8.5c-2.2-2.2-5.6-2.7-8.4-1.1h-.1v1.1Z"/>
        <path class="st2" d="M460.5,479.1h14.9c0-.1-.1-.2-.2-.4-2.9-4.9-9.1-6.5-14-3.7-1.2.7-2.2,1.6-3,2.7,1,.2,1.8.7,2.3,1.3v.1Z"/>
        <path class="st2" d="M502.2,327.7c6.9,5,8.5,14.6,3.5,21.5s-14.6,8.5-21.5,3.6-8.5-14.6-3.5-21.5,14.6-8.5,21.5-3.6Z"/>
      </g>
      <g>
        <path class="st2" d="M565.8,342.4c.1,0,15.8-39.4,15.5-39.5l.4.2c-.3-.1-15.8,39.4-15.7,39.4h-.2v-.1Z"/>
        <path class="st2" d="M558.2,353.4c0-.1-61.5,52-61.4,52.2l-.2-.2c.1.2,61.5-52,61.4-52.1v.2l.2-.1Z"/>
        <path class="st2" d="M557.6,345.2c0-.1-134.8-88.4-134.9-88.3v-.2c0,.1,134.9,88.4,135,88.3v.2h-.1Z"/>
        <path class="st2" d="M556.5,348.1c0-.1-48-6.1-48-5.8v-.4c0,.3,48,6.1,48.1,6v.2h-.1Z"/>
        <path class="st2" d="M654.8,449.9c.1,0-35-49.7-35.1-49.6h.2c-.1,0,35,49.5,35.1,49.4h-.2v.2Z"/>
        <path class="st2" d="M662.1,448.7c.2,0,21.3-60.1,21.1-60.2h.2c-.1,0-21.2,60.2-21.1,60.3h-.2v-.1Z"/>
        <path class="st2" d="M651.5,457c0-.2-101.5,5-101.5,5.1v-.2c0,.1,101.5-5,101.5-5.1v.3-.1Z"/>
        <path class="st2" d="M634.8,479.1c11.1-10.1,18.8-17.1,18.8-17.1l-.2-.2s-7.6,7.1-18.7,17.3h.1Z"/>
        <path class="st2" d="M651.5,457c0-.2-101.5,5-101.5,5.1v-.2c0,.1,101.5-5,101.5-5.2v.3h0Z"/>
        <path class="st2" d="M652.8,451.9c0-.1-146.9-102.9-147.1-102.7l.3-.4c-.2.3,146.9,103,147,102.8v.2l-.2.1Z"/>
        <path class="st2" d="M613.9,388c.1,0-22.7-84.5-23-84.4h.4c-.3,0,22.6,84.4,22.8,84.4h-.2Z"/>
        <path class="st2" d="M622.5,393.3c0,.1,56.3-10,56.3-10.1v.2c0-.1-56.3,10-56.2,10.1v-.2h-.1Z"/>
        <path class="st2" d="M618.8,388.4c.1,0,39.6-79.1,39.5-79.1h.2c-.1,0-39.7,79.2-39.5,79.2h-.2v-.1Z"/>
        <path class="st2" d="M648.1,228.6c-10.6,55.1-31,159.3-31.1,159.3h.2s20.2-104.2,31-159.3h-.1Z"/>
        <path class="st2" d="M384.5,368.9v.4c24.7,2.5,224.5,24.6,224.5,24.8v-.2c0,.1-200.1-22-224.5-24.9v-.1Z"/>
        <path class="st2" d="M610,398.2c0-.1-134.8,80.3-134.7,80.5l-.2-.3c.1.2,134.8-80.3,134.8-80.4v.2h.1Z"/>
        <path class="st2" d="M602.3,291.2c0,.3,115.2,20.7,115.2,20.6v.2c0-.1-115.2-20.6-115.3-20.3v-.5h.1Z"/>
        <path class="st2" d="M602.3,291.2c0,.3,51.7,9.5,51.8,9.4v.3c0-.2-51.8-9.5-51.8-9.2v-.5Z"/>
        <path class="st2" d="M626.2,228.6c-14.6,22.4-30.7,47.2-30.9,47.1l.4.3c-.1,0,15.9-24.9,30.5-47.4h0Z"/>
        <path class="st2" d="M688.9,376c.1,0,32-56.9,31.9-57h.2c-.1,0-32,57-31.9,57.1h-.2v-.1Z"/>
        <path class="st2" d="M691.7,385.5c0,.1,42.5,24.9,42.6,24.8v.2c0-.1-42.6-24.9-42.7-24.8v-.2h.1Z"/>
        <path class="st2" d="M692.6,382.1c0,.1,90.9,2.4,90.9,2.1v.4c0-.2-90.9-2.4-90.9-2.3v-.2Z"/>
        <path class="st2" d="M683.6,375.5c.1,0-19.2-65.6-19.4-65.6h.2c-.2,0,19.2,65.5,19.4,65.5h-.2v.1Z"/>
        <path class="st2" d="M564,479.1c53.8-42.9,116.2-92.7,116.3-92.6v-.2s-62.5,49.9-116.3,92.8h0Z"/>
        <path class="st2" d="M609.1,479.1c34.9-44.2,72.3-91.5,72.3-91.5h-.2s-37.3,47.3-72.2,91.5h.1Z"/>
        <path class="st2" d="M725.4,319.9c-.1,0,13,87.7,13.1,87.7h-.2c.1,0-13-87.6-13.1-87.6h.2v-.1Z"/>
        <path class="st2" d="M729.2,317.9s57.7,58.4,57.9,58.2l-.3.3c.2-.2-57.7-58.4-57.8-58.3l.2-.2h0Z"/>
        <path class="st2" d="M613,228.6c21.1,15.8,105.8,80.3,105.7,80.4v-.2s-84.2-63.9-105.4-80.2h-.3Z"/>
        <path class="st2" d="M717.4,312c0-.1-47.4-8.5-47.5-8.3v-.2c0,.2,47.5,8.5,47.5,8.4v.2-.1Z"/>
        <path class="st2" d="M681.8,228.6c16.7,33.2,39.3,78.3,39.2,78.3h.2s-22.8-45.1-39.4-78.3h0Z"/>
        <path class="st2" d="M744.5,410.6c0,.1,40.3-20.4,40.2-20.6l.2.3c-.1-.2-40.3,20.3-40.3,20.4v-.2l-.1.1Z"/>
        <path class="st2" d="M733.6,414.9c0-.1-183.9,45.7-183.8,45.9v-.2c0,.1,183.8-45.7,183.8-45.9v.2Z"/>
        <path class="st2" d="M785.1,378.6c.1-.2-116.2-72.3-116.3-72.1v-.2c0,.1,116.4,72.2,116.5,72l-.2.3h0Z"/>
        <path class="st2" d="M690.1,228.6c35.7,52.9,98.6,146.2,98.5,146.3l.3-.2c-.1,0-63.1-93.2-98.7-146.1h-.1Z"/>
        <path class="st2" d="M482.4,404.1c.2-.1-72-90.3-72.2-90.2l.3-.2c-.2.1,72,90.3,72.2,90.2l-.3.2h0Z"/>
        <path class="st2" d="M496.5,418.9c-.1.2,41.4,38.7,41.5,38.6l-.2.2c0-.1-41.4-38.7-41.6-38.5l.2-.2.1-.1Z"/>
        <path class="st2" d="M512.7,479.1c-10.6-29.8-20.3-57.4-20.2-57.4h-.3s9.9,27.6,20.5,57.4h0Z"/>
        <path class="st2" d="M484.5,402.8c.2,0-64.7-143.5-64.8-143.4h.2c-.1,0,64.7,143.4,64.9,143.3h-.3v.1Z"/>
        <path class="st2" d="M496.5,418.9c-.1.2,41.4,38.7,41.5,38.6l-.2.2c0-.1-41.4-38.7-41.6-38.6l.2-.2h.1Z"/>
        <path class="st2" d="M395.2,477.6c11.2-8,85.2-59.7,85.4-59.6l-.2-.3c.1.2-74.8,52.6-85.5,59.8h.3v.1Z"/>
        <path class="st2" d="M486,421.9c-.2,0-16.6,52.2-16.4,52.3h-.3c.2,0,16.6-52.3,16.4-52.4h.3v.1Z"/>
        <path class="st2" d="M384.5,462.6c48.1-23.3,95.2-46,95.3-45.9v-.3s-47.1,22.9-95.3,46.2h0Z"/>
        <path class="st2" d="M489.4,401.8c.2,0,3-46.2,2.7-46.2h.5c-.3,0-3.1,46.2-2.8,46.2h-.4Z"/>
        <path class="st2" d="M384.5,339.1c8.5-14.5,14.3-24.3,14.4-24.3l-.3-.2s-5.7,9.8-14.1,24.3v.2Z"/>
        <path class="st2" d="M384.5,310.7c5.9-1.4,9.5-2.3,9.5-2.3v-.3s-3.6.9-9.5,2.4h0v.2Z"/>
        <path class="st2" d="M384.5,298.6h0c5.8,2.3,9.8,3.8,9.8,3.8v-.3s-3.9-1.4-9.8-3.5Z"/>
        <path class="st2" d="M406.2,295.8c.2,0,9.1-36.1,9-36.2h.2c-.1,0-9.1,36.2-8.9,36.3h-.3v-.1Z"/>
        <path class="st2" d="M412.8,300.7c.1.2,73.5-41.2,73.4-41.4l.2.3c-.1-.2-73.5,41.2-73.4,41.4l-.2-.3Z"/>
        <path class="st2" d="M413.6,309.4c0,.2,65.3,25.4,65.4,25.1l-.2.4c.1-.3-65.3-25.4-65.3-25.2v-.3h.1Z"/>
        <path class="st2" d="M607.3,228.6c7.6,10,49.8,67,49.7,67.1l.2-.2c-.1,0-42-56.4-49.7-66.9h-.3.1Z"/>
        <path class="st2" d="M659.1,228.6l2.4,65.4h.3s-1.5-36.8-2.5-65.4h-.2Z"/>
        <path class="st2" d="M657.3,308.7c-.1,0-110.1,148.1-110,148.1h-.2c.1,0,110.1-148.2,110-148.3l.2.2Z"/>
        <path class="st2" d="M384.5,462.3h0c63.9,0,151.6,0,151.7.1v-.2s-87.7.1-151.7,0v.1Z"/>
        <path class="st2" d="M384.5,413.5c44.9-30.3,96-64.6,96.1-64.5l-.3-.4c0,.1-51,34.6-95.9,64.9h.1Z"/>
        <path class="st2" d="M384.5,450.9h0c9.6,9.1,19.2,18.2,28.3,26.8h0c-9.1-8.6-18.6-17.6-28.3-26.8Z"/>
        <path class="st2" d="M384.5,435h0c17.5,14.2,35.4,28.8,52.5,42.6h0c-17.1-13.9-35.1-28.4-52.6-42.6h.1Z"/>
        <path class="st2" d="M384.5,271.8c15.6-9,26.6-15.3,26.6-15.3v-.2s-11,6.3-26.6,15.4h0v.1Z"/>
        <path class="st2" d="M384.5,340h0c47.9.1,93.4.3,93.4.5v-.5c0,.1-45.5.1-93.4,0Z"/>
        <path class="st2" d="M384.5,353.5h0c29,38.5,65.1,86.3,94.6,125.5h0c-29.6-39.2-65.7-87.1-94.7-125.5h.1Z"/>
        <path class="st2" d="M384.5,261.9c14.2-3.8,25.8-7,25.9-6.9v-.2s-11.7,3.3-25.9,7.1h0Z"/>
        <path class="st2" d="M384.5,376.5v.4c25.2,13.4,152.5,82.2,152.4,82.3v-.2c0,.1-127.8-68.9-152.4-82.4v-.1Z"/>
        <path class="st2" d="M384.5,462.8v.4c1.4,7.6,2.3,12.6,2.2,12.6h.2s-1-5.1-2.5-13h.1Z"/>
        <path class="st2" d="M530.7,479.1c5-6.7,8.3-11.2,8.3-11.1h-.2c0-.1-3.3,4.4-8.2,11.1h.1Z"/>
        <path class="st2" d="M542.9,479.1h0c0-6,0-9.9.1-9.9h-.2v9.9h.1Z"/>
        <path class="st2" d="M483.7,479.1c16.1-4.6,52.7-14.9,52.8-14.8v-.2c0,.1-37.2,10.6-53.2,15h.4Z"/>
        <path class="st2" d="M530.7,479.1c5-6.7,8.3-11.1,8.3-11.1h-.2c0-.1-3.3,4.4-8.2,11.1h.1Z"/>
        <path class="st2" d="M542.9,479.1h0c0-6,0-9.8.1-9.8h-.2v9.8h.1Z"/>
        <path class="st2" d="M524,479.1c-12.4-55.9-27.4-123.8-27.2-123.9h-.5c.2,0,15.3,67.9,27.7,123.9h0Z"/>
        <path class="st2" d="M423.9,253c0,.1,61.1,1.2,61.1,1v.3c0-.2-61.1-1.2-61.1-1.1v-.2Z"/>
        <path class="st2" d="M421.6,258.1c-.1,0,61.4,70.6,61.7,70.4l-.3.3c.2-.2-61.4-70.6-61.5-70.5h.2l-.1-.2Z"/>
        <path class="st2" d="M495.2,264.6c-.2,0-1.6,60.2-1.3,60.2h-.5c.3,0,1.7-60.2,1.5-60.2h.3Z"/>
        <path class="st2" d="M483.7,479.1c16.1-4.6,52.7-14.9,52.7-14.8v-.2c0,.1-37.2,10.6-53.1,15h.4Z"/>
      </g>
    </g>
    <rect class="st9" x="384.3" y="228.8" width="742" height="248.8"/>
  </g>
  <g class="st15">
    <g class="st15">
      <path class="st11" d="M810.181,125.338h-3.94v-2.24h10.242v2.24h-3.921v11.562h-2.381v-11.562Z"/>
      <path class="st11" d="M816.16,131.799c0-3.04,2.341-5.341,5.441-5.341,3.121,0,5.461,2.301,5.461,5.361,0,.28-.02.58-.06.84h-8.442c.341,1.48,1.541,2.461,3.141,2.461,1.181,0,2.201-.521,2.721-1.301h2.48c-.82,1.98-2.82,3.321-5.241,3.321-3.16,0-5.501-2.301-5.501-5.342ZM818.581,130.819h6.081c-.34-1.4-1.54-2.341-3.061-2.341-1.48,0-2.66.92-3.021,2.341Z"/>
      <path class="st11" d="M828.4,131.799c0-3.04,2.34-5.341,5.461-5.341,2.66,0,4.761,1.681,5.181,4.081h-2.38c-.36-1.141-1.461-1.921-2.801-1.921-1.801,0-3.161,1.381-3.161,3.181s1.36,3.182,3.161,3.182c1.34,0,2.44-.78,2.801-1.921h2.38c-.42,2.4-2.521,4.081-5.181,4.081-3.121,0-5.461-2.301-5.461-5.342Z"/>
      <path class="st11" d="M841.08,122.497h2.24v5.562c.82-1.04,2.001-1.601,3.441-1.601,2.42,0,4.041,1.601,4.041,4.021v6.421h-2.241v-5.682c0-1.56-1-2.601-2.54-2.601-1.62,0-2.701,1.061-2.701,2.641v5.642h-2.24v-14.403Z"/>
      <path class="st11" d="M853.48,123.097h5.36c4.021,0,7.021,2.96,7.021,6.901s-3,6.901-7.021,6.901h-5.36v-13.803ZM855.86,125.338v9.322h2.94c2.641,0,4.621-2.001,4.621-4.661s-1.98-4.661-4.621-4.661h-2.94Z"/>
      <path class="st11" d="M867.42,131.799c0-3.04,2.34-5.341,5.461-5.341,3.101,0,5.461,2.301,5.461,5.341s-2.36,5.342-5.461,5.342c-3.121,0-5.461-2.301-5.461-5.342ZM876.021,131.799c0-1.8-1.34-3.181-3.141-3.181s-3.161,1.381-3.161,3.181,1.36,3.182,3.161,3.182,3.141-1.381,3.141-3.182Z"/>
      <path class="st11" d="M879.739,131.799c0-3.04,2.341-5.341,5.461-5.341,2.661,0,4.762,1.681,5.182,4.081h-2.381c-.359-1.141-1.46-1.921-2.801-1.921-1.8,0-3.16,1.381-3.16,3.181s1.36,3.182,3.16,3.182c1.341,0,2.441-.78,2.801-1.921h2.381c-.42,2.4-2.521,4.081-5.182,4.081-3.12,0-5.461-2.301-5.461-5.342Z"/>
    </g>
  </g>
  <g class="st15">
    <g class="st15">
      <path class="st11" d="M1017.08,129.999c0-4.061,3.141-7.142,7.262-7.142,3.461,0,6.222,2.181,6.901,5.241h-2.521c-.62-1.761-2.32-2.94-4.381-2.94-2.721,0-4.801,2.08-4.801,4.841s2.08,4.841,4.801,4.841c2.061,0,3.761-1.18,4.381-2.94h2.521c-.68,3.061-3.44,5.241-6.901,5.241-4.121,0-7.262-3.081-7.262-7.142Z"/>
      <path class="st11" d="M1033.44,123.097h2.961l4.541,7.821,4.541-7.821h2.94v13.803h-2.381v-10.342l-4.44,7.682h-1.36l-4.421-7.682v10.342h-2.381v-13.803Z"/>
      <path class="st11" d="M1050.66,132.899h2.44c0,1.2,1.16,2.101,2.66,2.101,1.4,0,2.521-.76,2.521-1.86,0-2.74-7.382-1.5-7.382-6.201,0-2.48,2.121-4.081,4.781-4.081,2.741,0,4.821,1.74,4.821,4.061h-2.44c0-1.1-1.04-1.92-2.421-1.92-1.24,0-2.3.68-2.3,1.76,0,2.741,7.401,1.32,7.401,6.122,0,2.58-2.221,4.261-5.001,4.261-2.901,0-5.081-1.841-5.081-4.241Z"/>
    </g>
  </g>
  <g class="st15">
    <g class="st15">
      <path class="st11" d="M644,124.097h6.142c2.641,0,4.621,1.92,4.621,4.501,0,2.561-1.98,4.48-4.621,4.48h-3.761v4.821h-2.381v-13.803ZM646.381,126.338v4.501h3.721c1.26,0,2.221-.96,2.221-2.24,0-1.301-.961-2.261-2.221-2.261h-3.721Z"/>
      <path class="st11" d="M656.76,124.097h2.381v13.803h-2.381v-13.803Z"/>
      <path class="st11" d="M662.12,124.097h2.96l4.541,7.821,4.541-7.821h2.941v13.803h-2.381v-10.342l-4.441,7.682h-1.359l-4.422-7.682v10.342h-2.38v-13.803Z"/>
    </g>
  </g>
  <g class="st15">
    <g class="st15">
      <path class="st11" d="M444.38,129.999c0-4.061,3.141-7.142,7.261-7.142,3.461,0,6.222,2.181,6.902,5.241h-2.521c-.62-1.761-2.321-2.94-4.381-2.94-2.72,0-4.801,2.08-4.801,4.841s2.081,4.841,4.801,4.841c2.061,0,3.761-1.18,4.381-2.94h2.521c-.68,3.061-3.441,5.241-6.902,5.241-4.121,0-7.261-3.081-7.261-7.142Z"/>
      <path class="st11" d="M460.741,123.097h6.041c2.561,0,4.521,1.88,4.521,4.381,0,2.061-1.36,3.66-3.281,4.141l3.701,5.281h-2.981l-3.48-5.141h-2.141v5.141h-2.38v-13.803ZM463.121,125.338v4.341h3.601c1.22,0,2.141-.94,2.141-2.181s-.92-2.16-2.141-2.16h-3.601Z"/>
      <path class="st11" d="M473.541,123.097h2.96l4.541,7.821,4.541-7.821h2.94v13.803h-2.38v-10.342l-4.441,7.682h-1.36l-4.421-7.682v10.342h-2.38v-13.803Z"/>
    </g>
  </g>
  <path class="st10" d="M1033.4,76.2c.2.2.2.4.2.7,0,.2-.3.4-.5.5-.2,0-.5,0-.7-.2l-2-2c-.1-.1-.2-.3-.2-.5s0-.4.2-.5l2-2c.2-.2.4-.2.7-.2.2,0,.4.3.5.5,0,.2,0,.5-.2.7l-1.5,1.5,1.5,1.5ZM1038,73.1h0c-.2-.2-.2-.4-.2-.7,0-.2.3-.4.5-.5.2,0,.5,0,.7.2l2,2c.1.1.2.3.2.5s0,.4-.2.5l-2,2c-.1.1-.3.2-.5.2s-.4,0-.5-.2c-.1-.1-.2-.3-.2-.5s0-.4.2-.5l1.5-1.5-1.5-1.5ZM1035.4,78.5h0c0,.2-.3.4-.5.5-.2,0-.5,0-.7-.2s-.2-.4-.2-.7l2-7.4c0-.2.3-.4.5-.5.2,0,.5,0,.7.2s.2.4.2.7l-2,7.4h0ZM1060.5,83.8l1.4-1.4-.8-.8h0c-.1-.1-.2-.3-.2-.4v-.4c.2-.3.3-.6.5-.9.1-.3.2-.6.3-.9,0-.2.1-.3.2-.4s.3-.2.5-.2h1.2v-2h-1.2c-.2,0-.3,0-.4-.2-.1,0-.2-.2-.2-.4,0-.3-.2-.6-.3-.9-.1-.3-.3-.6-.4-.8,0-.1-.1-.3-.1-.5s0-.3.2-.4l.8-.8-1.4-1.4-.8.8c-.1.1-.3.2-.4.2h-.4c-.3-.2-.6-.3-.9-.5-.3-.1-.6-.2-.9-.3-.2,0-.3-.1-.4-.2s-.2-.3-.2-.5v-1.2h-2v1.2h0c0,.2,0,.3-.2.4,0,.1-.2.2-.4.2-.3,0-.6.2-.9.3h0c-.3.1-.6.3-.8.4-.1,0-.3.1-.5.1s-.3,0-.4-.2l-.8-.8h0l-1.3,1.4.8.8h0c.1.1.2.3.2.4v.4c-.3.6-.6,1.2-.8,1.8,0,.2-.1.3-.2.4s-.3.2-.5.2h-1.2v2h1.2c.2,0,.3,0,.4.2.1,0,.2.2.2.4,0,.3.2.6.3.9h0c.1.3.3.6.4.9,0,.1.1.3.1.5s0,.3-.2.4l-.8.8,1.3,1.3h0l.8-.7h0c.1-.1.3-.2.4-.2h.4c.6.3,1.2.6,1.8.8.2,0,.3.1.4.2s.2.3.2.5v1.2h2v-1.2c0-.2,0-.3.2-.4,0-.1.2-.2.4-.2.3,0,.6-.2,1-.3.3-.1.6-.3.8-.4.1,0,.3-.1.5-.1s.3,0,.4.2l.8.8h0l-.1-.1ZM1057.6,75.2c.7.7,1,1.6.9,2.6-.1.9-.7,1.8-1.5,2.2-.8.5-1.8.5-2.7.2-.9-.4-1.5-1.1-1.8-2s0-1.9.5-2.6c.6-.8,1.5-1.2,2.4-1.2.8,0,1.6.3,2.2.9h0v-.1ZM1055.5,72.9h0c1.4,0,2.7.6,3.5,1.7s1.1,2.5.8,3.9c-.4,1.3-1.3,2.4-2.6,3-1.3.5-2.7.4-3.9-.3-1.2-.7-2-1.9-2.2-3.3s.3-2.8,1.3-3.7c.8-.8,2-1.3,3.2-1.3h-.1ZM1052.4,106.5h-28.1c-.2,0-.4,0-.6.3-.2.2-.3.4-.3.6v.9h29.8v-.9c0-.2,0-.4-.3-.6-.2-.2-.4-.3-.6-.3h.1ZM1035.4,101.3v3.8h5.9v-3.8h-5.9ZM1056,97.3h-35.2v2.4c0,.1.1.3.3.3h34.7c.1,0,.3-.1.3-.3v-2.4h-.1ZM1042.4,81.8c-.2,0-.4,0-.5-.2-.1-.1-.2-.3-.2-.5s0-.4.2-.5c.1-.1.3-.2.5-.2h3.5c.2,0,.5.1.6.4.1.2.1.5,0,.7s-.3.4-.6.4h-3.5v-.1ZM1030.9,81.8c-.2,0-.5-.1-.6-.4-.1-.2-.1-.5,0-.7s.3-.4.6-.4h9c.2,0,.4,0,.5.2.1.1.2.3.2.5s0,.4-.2.5c-.1.1-.3.2-.5.2h-9v.1ZM1030.9,85.6c-.2,0-.5-.1-.6-.4-.1-.2-.1-.5,0-.7s.3-.4.6-.4h15.1c.2,0,.5.1.6.4.1.2.1.5,0,.7s-.3.4-.6.4h-15.1ZM1030.9,89.3c-.2,0-.5-.1-.6-.4-.1-.2-.1-.5,0-.7s.3-.4.6-.4h15.1c.2,0,.5.1.6.4.1.2.1.5,0,.7s-.3.4-.6.4h-15.1ZM1026.2,72.6h-5.2c-.4,0-.9.2-1.2.5h0c-.3.3-.5.7-.5,1.2v25.4c0,.4.2.9.5,1.2.3.3.7.5,1.2.5h13v3.8h-9.7c-.6,0-1.2.2-1.6.7-.4.4-.7,1-.7,1.6v1h0c0,.3.1.6.4.9.2.2.6.4.9.4h30.1c.3,0,.6-.1.9-.4.2-.2.4-.6.4-.9v-1c0-.6-.2-1.2-.7-1.6-.4-.4-1-.7-1.6-.7h-9.7v-3.8h13c.4,0,.9-.2,1.2-.5.3-.3.5-.7.5-1.2v-13h0c.2-.2.4-.6.4-.9v-.8c.2,0,.4-.1.6-.2s.4-.2.6-.3l.6.6h0c.2.2.5.4.8.4s.6-.1.9-.3h0l1.6-1.6c.2-.2.4-.6.4-.9s-.1-.6-.4-.9l-.6-.6c.1-.2.2-.4.3-.6,0-.2.2-.4.2-.6h.8c.3,0,.6-.1.9-.4.2-.2.4-.5.4-.9v-2.3c0-.3-.1-.6-.3-.8h0c-.2-.2-.6-.4-.9-.4h-.8c0-.2-.1-.4-.2-.6,0-.2-.2-.4-.3-.6l.6-.6c.2-.2.4-.6.4-.9s-.1-.6-.4-.9l-1.6-1.6h0c-.2-.2-.6-.4-.9-.4s-.6.1-.9.4l-.6.6c-.2-.1-.4-.2-.6-.3-.2,0-.4-.2-.6-.2v-.8c0-.3-.1-.6-.4-.9-.2-.2-.6-.4-.9-.4h-2.3c-.3,0-.6.1-.9.4-.2.2-.4.6-.4.9v.8c-.2,0-.4.1-.6.2-.2,0-.4.2-.6.3l-.6-.6c-.2-.2-.5-.3-.8-.4v-4.7c0-.4-.2-.9-.5-1.2s-.7-.5-1.2-.5h-17.6c-.2,0-.4,0-.5.2l-4.3,4.3h0c-.1.1-.2.3-.2.5v4.4h.2ZM1050.6,85.3v7.7c0,.4-.2.9-.5,1.2-.3.3-.7.5-1.2.5h-21c-.4,0-.9-.2-1.2-.5-.3-.3-.5-.7-.5-1.2v-19h-5.4v21.8h35.2v-9h-1.7c-.3,0-.6-.1-.9-.4-.2-.2-.4-.6-.4-.9v-.8c-.2,0-.4-.1-.6-.2s-.4-.2-.6-.3l-.6.6h0c-.2.2-.4.3-.7.3h0l.1.2ZM1028.6,67.5l1.9-1.9v1.7h0v.2h-1.9ZM1042.4,78.1c-.2,0-.4,0-.5-.2-.1-.1-.2-.3-.2-.5s0-.4.2-.5c.1-.1.3-.2.5-.2h3.5v-.4h0c0-.3.1-.6.4-.9.2-.2.6-.4.9-.4h.8c0-.2.1-.4.2-.6,0-.2.2-.4.3-.6l-.6-.6h0c-.2-.2-.4-.6-.4-.9s.1-.6.4-.9l1.2-1.2v-5.4c0-.1-.1-.3-.3-.3h-16.9v2.6c0,.4-.2.9-.5,1.2-.3.3-.7.5-1.2.5h-2.6v24.1c0,.1.1.3.3.3h21c.1,0,.3-.1.3-.3v-8.4l-1.2-1.2h0c-.2-.2-.4-.6-.4-.9s.1-.6.4-.9l.6-.6c-.1-.2-.2-.4-.3-.6,0-.2-.2-.4-.2-.6h-.8c-.3,0-.6-.1-.9-.4-.2-.2-.4-.6-.4-.9v-.4h-3.5l-.1.1ZM1042.4,74.3c-.2,0-.4,0-.5-.2-.1-.1-.2-.3-.2-.5s0-.4.2-.5c.1-.1.3-.2.5-.2h3.5c.2,0,.5.1.6.4.1.2.1.5,0,.7s-.3.4-.6.4h-3.5v-.1Z"/>
  <path class="st11" d="M454.3,100.3c-.6-.2-1.2-.3-1.8-.3,1-.8,1.6-2.1,1.6-3.7s-.6-2.3-1.1-2.8c-.6-.6-1.5-.9-2.5-.9s-1.9.3-2.5.9c-.5.4-1.1,1.3-1.1,2.8s.6,2.9,1.6,3.7c-.6,0-1.2.2-1.8.4-2,.5-3.2,1.7-3.2,3.2v5.1c0,.4.3.7.7.7s.7-.3.7-.7v-5.1c0-1,1.1-1.6,2.1-1.8,2.2-.6,4.5-.6,6.8,0,.8.2,2.1.7,2.1,1.8v5.1c0,.4.3.7.7.7s.7-.3.7-.7v-5.1c0-1.5-1.2-2.7-3.2-3.2h0l.2-.1ZM450.6,94.1c.9,0,2.1.4,2.1,2.2s-.9,2.9-2.1,2.9-2.1-1.3-2.1-2.9c0-1.8,1.1-2.2,2.1-2.2ZM447.9,104.8v3.8c0,.4-.3.7-.7.7s-.7-.3-.7-.7v-3.8c0-.4.3-.7.7-.7s.7.3.7.7h0ZM454.7,104.8v3.8c0,.4-.3.7-.7.7s-.7-.3-.7-.7v-3.8c0-.4.3-.7.7-.7s.7.3.7.7h0ZM487.6,100.3c-.6-.2-1.2-.3-1.8-.3,1-.8,1.6-2.1,1.6-3.7s-.6-2.3-1.1-2.8c-.6-.6-1.5-.9-2.5-.9s-1.9.3-2.5.9c-.5.4-1.1,1.3-1.1,2.8s.6,2.9,1.6,3.7c-.6,0-1.2.2-1.8.4-2,.5-3.2,1.7-3.2,3.2v5.1c0,.4.3.7.7.7s.7-.3.7-.7v-5.1c0-1,1.1-1.6,2.1-1.8,2.2-.6,4.5-.6,6.8,0,.8.2,2.1.7,2.1,1.8v5.1c0,.4.3.7.7.7s.7-.3.7-.7v-5.1c0-1.5-1.2-2.7-3.2-3.2h0l.2-.1ZM483.8,94.1c.9,0,2.1.4,2.1,2.2s-.9,2.9-2.1,2.9-2.1-1.3-2.1-2.9,1.1-2.2,2.1-2.2h0ZM481.1,104.8v3.8c0,.4-.3.7-.7.7s-.7-.3-.7-.7v-3.8c0-.4.3-.7.7-.7s.7.3.7.7h0ZM487.9,104.8v3.8c0,.4-.3.7-.7.7s-.7-.3-.7-.7v-3.8c0-.4.3-.7.7-.7s.7.3.7.7h0ZM471,100.3c-.6-.2-1.2-.3-1.8-.3,1-.8,1.6-2.1,1.6-3.7s-.6-2.3-1.1-2.8c-.6-.6-1.5-.9-2.5-.9s-1.9.3-2.5.9c-.5.4-1.1,1.3-1.1,2.8s.6,2.9,1.6,3.7c-.6,0-1.2.2-1.8.4-2,.5-3.2,1.7-3.2,3.2v5.1c0,.4.3.7.7.7s.7-.3.7-.7v-5.1c0-1,1.1-1.6,2.1-1.8,2.2-.6,4.5-.6,6.8,0,.8.2,2.1.7,2.1,1.8v5.1c0,.4.3.7.7.7s.7-.3.7-.7v-5.1c0-1.5-1.2-2.7-3.2-3.2h0l.2-.1ZM467.2,94.1c.9,0,2.1.4,2.1,2.2s-.9,2.9-2.1,2.9-2.1-1.3-2.1-2.9,1.1-2.2,2.1-2.2ZM464.5,104.8v3.8c0,.4-.3.7-.7.7s-.7-.3-.7-.7v-3.8c0-.4.3-.7.7-.7s.7.3.7.7h0ZM471.3,104.8v3.8c0,.4-.3.7-.7.7s-.7-.3-.7-.7v-3.8c0-.4.3-.7.7-.7s.7.3.7.7h0ZM449.1,90.6v-2.6c0-.4.3-.7.7-.7h16.7v-1.7c0-.4.3-.7.7-.7s.7.3.7.7v1.7h16.7c.4,0,.7.3.7.7v2.6c0,.4-.3.7-.7.7s-.7-.3-.7-.7v-1.8h-15.9v1.8c0,.4-.3.7-.7.7s-.7-.3-.7-.7v-1.8h-15.9v1.8c0,.4-.3.7-.7.7s-.7-.3-.7-.7h-.2ZM452.7,71.5c.2.1,3.3,1.5,3.6,1.6.2,0,.2.3.3.9,0,.3.1.6.2.9l-.5.9c-.3.5-.3,1.2-.2,1.7.2.6.6,1.1,1.1,1.3.3.2.6.3,1,.3v.9c.2.6.6,1.1,1.1,1.3.6.3,1.4.3,2,0,.2.4.5.7.9.9.6.3,1.2.3,1.9.1.2.4.5.8,1,1.1.5.3,1.2.3,1.7.2.4-.1.8-.4,1.1-.7l.6.3c.3.2.7.3,1.1.3.8,0,1.6-.4,2-1.2.2-.4.3-.9.3-1.3.7-.1,1.3-.5,1.7-1.2.2-.3.3-.7.3-1h0c.8,0,1.6-.4,2-1.2.2-.4.3-.8.3-1.2h.4c.6-.2,1.1-.6,1.4-1.1.2-.4.3-.9.3-1.3l3.2-1.4c.4-.2.5-.6.4-.9l-3.2-8.3c-.2-.4-.7-.6-1-.4l-2.7,1.4c-.5.3-1.1,0-2.1-.3-1.4-.6-3.3-1.3-5.7.1-1.8-1-3.3-.6-4.5-.4-1,.2-1.6.4-2.2,0h0l-3.5-1.6c-.4-.2-.8,0-1,.4l-3.7,7.9c-.2.5,0,.8.4,1h0ZM457.7,77.1v-.6l1-1.8c.2-.4.7-.5,1.1-.3s.5.7.3,1.1l-1,1.8c-.2.4-.7.5-1.1.3-.2-.1-.3-.3-.4-.5h.1ZM460.8,80.1h-.6c-.4-.2-.5-.7-.3-1.1l1.3-2.5c.2-.4.7-.5,1.1-.3s.5.7.3,1.1l-1.3,2.5c-.1.2-.3.3-.5.4h0v-.1ZM463.8,81.1h-.6c-.4-.2-.5-.7-.3-1.1l1.1-2c.2-.4.7-.5,1.1-.3s.5.7.3,1.1l-1.1,2c-.1.2-.3.3-.5.4h0v-.1ZM466.7,82.3h-.6c-.4-.2-.5-.7-.3-1.1l.9-1.8c.2-.4.7-.5,1.1-.3s.5.7.3,1.1l-.9,1.8c-.1.2-.3.3-.5.4h0v-.1ZM470.6,81.7c-.2.4-.7.5-1.1.3l-.6-.3.5-.9c.1-.2.2-.4.2-.6l.7.4c.4.2.5.7.3,1.1h0ZM472.5,65.5c1.1.4,2.2.9,3.3.3l2-1.1,2.7,6.8-2.6,1.1c-.2-.2-.3-.3-.6-.4l-5.3-3c-.5-.3-1-.4-1.5-.4-1,0-2,.4-2.9.8-1.9.8-3.2,1.2-4.5,0,1.4-.8,2.5-1.8,3.5-2.7.4-.4.9-.8,1.3-1.1,2-1.4,3.3-.8,4.7-.3h-.1ZM457.1,63.9l2.9,1.3c1.1.6,2.2.4,3.3.1.9-.2,1.8-.4,2.8,0-.2.2-.4.4-.6.5-1,1-2.3,2-3.9,2.9-.2.1-.3.3-.4.5,0,.2,0,.4.1.6,2.2,3,4.8,1.9,6.7,1.1,1.3-.5,2.4-1,3.2-.5l5.3,3c.4.2.5.7.3,1.1s-.7.5-1.1.3l-3.8-2.2c-.4-.2-.8,0-1,.3-.2.4,0,.8.3,1l3.3,1.9c.4.2.5.7.3,1.1s-.7.5-1.1.3l-4.2-2.3c-.4-.2-.8,0-1,.3-.2.4,0,.8.3,1l3.3,1.9c.4.2.5.7.3,1.1s-.7.5-1.1.3l-2.3-1.3c-.2-.2-.4-.4-.6-.5-.5-.3-1.1-.3-1.6-.2-.2-.5-.6-1-1.1-1.3s-1.1-.3-1.6-.2c-.2-.5-.6-1-1.1-1.3-.4-.2-.9-.3-1.4-.2v-.2c-.2-.6-.6-1.1-1.1-1.3-.5-.3-1.2-.3-1.7-.2-.3,0-.5.2-.7.4-.1-.6-.4-1.2-1.1-1.5-.3-.1-2-.9-2.9-1.3l3.1-6.5h-.1Z"/>
  <g>
    <path class="st11" d="M659.5,94.3c-.4-.2-.7-.3-1.1-.3h-2.6c-.2,0-.4,0-.5.2-.1.1-.2.3-.2.5v6.7c0,.2,0,.4.2.5.1.1.3.2.5.2s.4,0,.5-.2c.1-.1.2-.3.2-.5v-2.2h2c.4,0,.8-.1,1.1-.4.4-.2.6-.6.9-.9.2-.4.3-.8.3-1.3s-.1-.9-.3-1.3-.5-.7-.8-.9h0l-.2-.1ZM659.1,97.2c0,.2-.2.4-.3.5s-.3.2-.4.2h-2v-2.6h2c.1,0,.3,0,.4.2.1.1.3.3.3.5s.1.4.1.6,0,.4-.1.6h0Z"/>
    <path class="st11" d="M662.7,94c-.2,0-.4,0-.5.2-.1.1-.2.3-.2.5v6.7c0,.2,0,.4.2.5.1.1.3.2.5.2s.4,0,.5-.2c.1-.1.2-.3.2-.5v-6.7c0-.2,0-.4-.2-.5-.1-.1-.3-.2-.5-.2h0Z"/>
    <path class="st11" d="M672.2,93.9c-.2,0-.4.1-.6.3l-2.6,3.9-2.5-3.9s-.2-.2-.3-.2h-.3c-.2,0-.4,0-.5.2-.1.1-.2.3-.2.5v6.7c0,.2,0,.4.2.5.1.1.3.2.5.2s.4,0,.5-.2c.1-.1.2-.3.2-.5v-4.8l1.9,3s.2.2.3.2h.6c.1,0,.2-.1.3-.2l1.9-2.9v4.7c0,.2,0,.4.2.5.1.1.3.2.5.2s.4,0,.5-.2c.1-.1.2-.3.2-.5v-6.7c0-.2,0-.4-.2-.5-.1-.1-.3-.2-.5-.2h0l-.1-.1Z"/>
    <path class="st11" d="M678.8,89.3h-.8v-15.6c0-.7-.1-1.3-.4-1.9,0-.2,0-.3-.2-.5,0-.1-.2-.3-.2-.4,0,0,0-.2-.2-.3-.2-.2-.4-.5-.6-.7l-5.8-5.8c-.4-.4-1-.8-1.5-1h0c-.7-.3-1.4-.5-2.1-.5h-21c-1.6,0-2.8,1.3-2.8,2.8v42.3c0,1.6,1.3,2.8,2.8,2.8h29c1.6,0,2.8-1.3,2.8-2.8v-.5h.8c1.4,0,2.5-1.1,2.5-2.5v-13.1c0-1.4-1.1-2.5-2.5-2.5h0l.2.2ZM675.2,71.1h-4.6c-.5,0-.8-.4-.8-.8v-4.6l5.4,5.4h0ZM676.4,107.9c0,.7-.5,1.2-1.2,1.2h-29c-.7,0-1.2-.5-1.2-1.2v-42.3c0-.7.5-1.2,1.2-1.2h21c.3,0,.6,0,1,.2v5.6c0,1.4,1.1,2.5,2.5,2.5h5.6c0,.3.2.6.2,1v15.6h-13.3c-.2,0-.5,0-.6-.3l-.7-.7c-.5-.5-1.1-.7-1.8-.7h-10.8c-1.4,0-2.5,1.1-2.5,2.5v14.8c0,1.4,1.1,2.5,2.5,2.5h27.2v.5h-.1ZM679.7,104.9c0,.5-.4.9-.9.9h-29.7c-.5,0-.9-.4-.9-.9v-14.8c0-.5.4-.9.9-.9h10.8c.2,0,.5,0,.6.3l.7.7c.5.5,1.1.7,1.8.7h15.8c.5,0,.9.4.9.9v13.1h0Z"/>
    <path class="st11" d="M652.4,81h.4v-1.7h2.9v-1.7h-2.9v-1.7h2.9v-1.7h-2.9v-1.7h2.9v-1.7h-2.9v-1.7h2.9v-1.7h-2.9v-1.7h-3.7v1.7h2.9v1.7h-2.9v1.7h2.9v1.7h-2.9v1.7h2.9v1.7h-2.9v1.7h2.9v1.7h-2.9v1.7h3.3Z"/>
    <path class="st11" d="M649.1,81.8h6.6v3.3h-6.6v-3.3Z"/>
  </g>
  <path class="st10" d="M831.2,69.4h2.8c.2,0,.4,0,.5-.2.1-.1.2-.3.2-.5v-3.5l-3.5,4.2h0ZM835.7,64.4h26.5c.2,0,.4,0,.5.2.1.1.2.3.2.5v39.8c0,.2,0,.4-.2.5s-.3.2-.5.2h-30.9c-.2,0-.4,0-.5-.2-.1-.1-.2-.3-.2-.5v-34.5h3.4c.5,0,.9-.2,1.3-.5.3-.3.5-.8.5-1.3v-4.3h0l-.1.1ZM834.6,106.8h27.7c.5,0,.9-.2,1.3-.5.3-.3.5-.8.5-1.3v-37.1h2.2c.2,0,.4,0,.5.2.1.1.2.3.2.5v39.8c0,.2,0,.4-.2.5-.1.1-.3.2-.5.2h-30.9c-.2,0-.4,0-.5-.2-.1-.1-.2-.3-.2-.5v-1.7l-.1.1ZM864,66.8h2.2c.5,0,.9.2,1.3.5.3.3.5.8.5,1.3v39.8c0,.5-.2.9-.5,1.3s-.8.5-1.3.5h-30.9c-.5,0-.9-.2-1.3-.5-.3-.3-.5-.8-.5-1.3v-1.7h-2.2c-.5,0-.9-.2-1.3-.5-.3-.3-.5-.8-.5-1.3v-35.1h0l5-6.1c.1-.1.3-.2.4-.2h27.2c.5,0,.9.2,1.3.5.3.3.5.8.5,1.3v1.7l.1-.2ZM844.1,91.6l-3.1-2.3,3.1-2.3h0c.2-.2.3-.5.1-.7s-.5-.3-.7-.1l-3.7,2.7-.1.1c-.2.2-.1.6.1.7l3.7,2.7h0c.2.2.6.1.7-.1.2-.2.1-.6-.1-.7h0ZM850.1,92.4l3.7-2.7c.1-.1.2-.3.2-.4,0-.2,0-.3-.2-.4l-3.7-2.7c-.2-.2-.6-.1-.7.1-.2.2-.1.6.1.7l3.1,2.3-3.1,2.3c-.2.2-.3.5-.1.7s.5.3.7.1h0ZM845.3,94l3.8-9v-.4c0-.1-.2-.2-.3-.3h-.4c-.1,0-.2.2-.3.3l-3.8,9v.4c0,.1.2.2.3.3h.4c.1,0,.2-.2.3-.3h0ZM845.5,77.4l1,1c-2.3,0-4.6.9-6.5,2.3s-3.2,3.4-3.8,5.7-.5,4.7.3,6.8c.8,2.2,2.4,4.1,4.3,5.3.2.1.6,0,.7-.2.2-.2,0-.6-.1-.7-1.8-1.1-3.2-2.8-3.9-4.8-.8-2-.8-4.2-.3-6.2.6-2,1.8-3.8,3.5-5.1,1.7-1.3,3.7-2,5.9-2l-1.1,1.1c-.1,0-.2.2-.2.4,0,.1,0,.3.2.4.1.1.2.2.4.2.1,0,.3,0,.4-.2l2-1.9c.2-.2.2-.4.1-.6h0l-1.9-2c0-.1-.2-.2-.4-.2-.1,0-.3,0-.4.2-.1.1-.2.2-.2.4,0,.1,0,.3.2.4h0l-.2-.3ZM846.9,97.2l-1.9,2h0c-.2.2-.2.5,0,.8l2,1.9c.2.2.5.2.8,0s.2-.5,0-.8l-.9-.9h0c2.4,0,4.7-.8,6.6-2.2,1.9-1.4,3.3-3.4,3.9-5.7.7-2.3.6-4.7-.3-6.9s-2.4-4.1-4.4-5.4c-.3-.2-.6,0-.7.2-.2.3,0,.6.2.7,1.8,1.1,3.2,2.8,3.9,4.8.8,2,.8,4.2.2,6.2-.6,2.1-1.8,3.9-3.5,5.1-1.7,1.3-3.8,2-5.9,2h-.2l1.1-1.2c.1-.1.2-.2.2-.4,0-.1,0-.3-.2-.4-.1-.1-.2-.2-.4-.2-.1,0-.3,0-.4.2h0l-.1.2ZM858.4,68.1h-4.4c-.3,0-.5.2-.5.5s.2.5.5.5h4.4c.3,0,.5-.2.5-.5s-.2-.5-.5-.5ZM858.4,70.6h-7.1c-.3,0-.5.2-.5.5s.2.5.5.5h7.1c.3,0,.5-.2.5-.5s-.2-.5-.5-.5h0Z"/>
  <g class="st15">
    <g class="st15">
      <path class="st13" d="M121.376,63.58h4.564l7.42,19.32h-4.228l-1.372-3.752h-8.316l-1.344,3.752h-4.172l7.448-19.32ZM126.444,75.592l-2.828-7.756-2.856,7.756h5.684Z"/>
      <path class="st13" d="M135.124,68.62h3.64v1.681c1.148-1.261,2.744-2.017,4.648-2.017,3.976,0,6.944,3.221,6.944,7.477s-2.968,7.476-6.944,7.476c-1.904,0-3.5-.756-4.648-2.016v7h-3.64v-19.601ZM146.604,75.76c0-2.24-1.652-3.948-3.92-3.948-2.24,0-3.92,1.708-3.92,3.948s1.68,3.947,3.92,3.947c2.268,0,3.92-1.708,3.92-3.947Z"/>
      <path class="st13" d="M153.044,68.62h3.64v1.681c1.148-1.261,2.744-2.017,4.648-2.017,3.976,0,6.944,3.221,6.944,7.477s-2.968,7.476-6.944,7.476c-1.904,0-3.5-.756-4.648-2.016v7h-3.64v-19.601ZM164.524,75.76c0-2.24-1.652-3.948-3.92-3.948-2.24,0-3.92,1.708-3.92,3.948s1.68,3.947,3.92,3.947c2.268,0,3.92-1.708,3.92-3.947Z"/>
      <path class="st13" d="M171.02,62.74h3.64v20.16h-3.64v-20.16Z"/>
      <path class="st13" d="M177.768,64.337c0-1.288,1.008-2.269,2.296-2.269s2.296.98,2.296,2.269-1.008,2.268-2.296,2.268-2.296-.98-2.296-2.268ZM178.244,68.62h3.64v14.28h-3.64v-14.28Z"/>
      <path class="st13" d="M184.544,75.76c0-4.256,3.304-7.477,7.672-7.477,3.808,0,6.776,2.437,7.336,5.824h-3.864c-.476-1.372-1.82-2.296-3.472-2.296-2.24,0-3.92,1.708-3.92,3.948s1.68,3.947,3.92,3.947c1.652,0,2.996-.924,3.472-2.296h3.864c-.56,3.389-3.528,5.824-7.336,5.824-4.368,0-7.672-3.22-7.672-7.476Z"/>
      <path class="st13" d="M201.315,75.76c0-4.256,2.996-7.477,6.972-7.477,1.904,0,3.5.756,4.648,2.017v-1.681h3.64v14.28h-3.64v-1.68c-1.148,1.26-2.744,2.016-4.648,2.016-3.976,0-6.972-3.22-6.972-7.476ZM212.935,75.76c0-2.24-1.68-3.948-3.948-3.948-2.24,0-3.92,1.708-3.92,3.948s1.68,3.947,3.92,3.947c2.268,0,3.948-1.708,3.948-3.947Z"/>
      <path class="st13" d="M221.391,78.392v-6.44h-2.268v-3.332h1.288c.756,0,1.176-.392,1.176-1.147v-2.66h3.444v3.808h3.304v3.332h-3.304v5.824c0,1.12.7,1.792,1.876,1.792h1.428v3.332h-1.96c-3.276,0-4.984-1.568-4.984-4.508Z"/>
      <path class="st13" d="M230.631,64.337c0-1.288,1.008-2.269,2.296-2.269s2.296.98,2.296,2.269-1.008,2.268-2.296,2.268-2.296-.98-2.296-2.268ZM231.107,68.62h3.64v14.28h-3.64v-14.28Z"/>
      <path class="st13" d="M237.407,75.76c0-4.256,3.304-7.477,7.672-7.477s7.672,3.221,7.672,7.477-3.304,7.476-7.672,7.476-7.672-3.22-7.672-7.476ZM248.999,75.76c0-2.24-1.652-3.948-3.92-3.948-2.24,0-3.92,1.708-3.92,3.948s1.68,3.947,3.92,3.947c2.268,0,3.92-1.708,3.92-3.947Z"/>
      <path class="st13" d="M255.354,68.62h3.64v1.597c1.12-1.261,2.688-1.933,4.536-1.933,3.36,0,5.572,2.185,5.572,5.544v9.072h-3.64v-7.896c0-1.933-1.232-3.192-3.108-3.192-2.016,0-3.36,1.288-3.36,3.248v7.84h-3.64v-14.28Z"/>
      <path class="st13" d="M271.538,78.616h3.668c0,.98.952,1.624,2.268,1.624,1.204,0,2.044-.56,2.044-1.315,0-2.324-7.756-.98-7.756-6.104,0-2.884,2.408-4.536,5.544-4.536,3.332,0,5.628,1.849,5.628,4.396h-3.64c0-.84-.812-1.429-2.016-1.429-1.12,0-1.876.505-1.876,1.232,0,2.268,7.784.952,7.784,6.076,0,2.8-2.296,4.676-5.712,4.676-3.556,0-5.936-1.932-5.936-4.62Z"/>
      <path class="st13" d="M293.938,61.9h3.668l-11.2,25.2h-3.668l11.2-25.2Z"/>
    </g>
    <g class="st15">
      <path class="st13" d="M41.86,97.18h9.352c2.884,0,5.096,2.072,5.096,4.929,0,1.792-.924,3.388-2.184,4.115,1.904.673,3.22,2.717,3.22,5.04,0,3.053-2.324,5.236-5.404,5.236h-10.08v-19.32ZM45.612,100.653v4.256h4.62c1.176,0,2.128-.924,2.128-2.128s-.924-2.128-2.128-2.128h-4.62ZM45.612,108.184v4.845h5.376c1.372,0,2.408-1.064,2.408-2.437,0-1.344-1.036-2.408-2.408-2.408h-5.376Z"/>
      <path class="st13" d="M59.444,111.376v-9.156h3.64v8.093c0,1.819,1.176,2.995,2.94,2.995,1.876,0,3.136-1.203,3.136-3.052v-8.036h3.64v14.28h-3.64v-1.568c-1.092,1.261-2.576,1.904-4.34,1.904-3.22,0-5.376-2.156-5.376-5.46Z"/>
      <path class="st13" d="M75.375,112.216h3.668c0,.98.952,1.624,2.268,1.624,1.204,0,2.044-.56,2.044-1.315,0-2.324-7.756-.98-7.756-6.104,0-2.884,2.408-4.536,5.544-4.536,3.332,0,5.628,1.849,5.628,4.396h-3.64c0-.84-.812-1.429-2.016-1.429-1.12,0-1.876.505-1.876,1.232,0,2.268,7.784.952,7.784,6.076,0,2.8-2.296,4.676-5.712,4.676-3.556,0-5.936-1.932-5.936-4.62Z"/>
      <path class="st13" d="M89.179,97.937c0-1.288,1.008-2.269,2.296-2.269s2.296.98,2.296,2.269-1.008,2.268-2.296,2.268-2.296-.98-2.296-2.268ZM89.655,102.22h3.64v14.28h-3.64v-14.28Z"/>
      <path class="st13" d="M96.823,102.22h3.64v1.597c1.12-1.261,2.688-1.933,4.536-1.933,3.36,0,5.572,2.185,5.572,5.544v9.072h-3.64v-7.896c0-1.933-1.232-3.192-3.108-3.192-2.016,0-3.36,1.288-3.36,3.248v7.84h-3.64v-14.28Z"/>
      <path class="st13" d="M113.091,109.361c0-4.256,3.304-7.477,7.672-7.477s7.672,3.221,7.672,7.532c0,.392-.028.84-.112,1.204h-11.34c.476,1.848,1.96,3.052,3.92,3.052,1.484,0,2.716-.672,3.36-1.596h3.948c-1.092,2.828-3.92,4.76-7.392,4.76-4.424,0-7.728-3.22-7.728-7.476ZM117.011,107.96h7.532c-.448-1.736-1.904-2.912-3.78-2.912-1.848,0-3.248,1.148-3.752,2.912Z"/>
      <path class="st13" d="M130.086,112.216h3.668c0,.98.952,1.624,2.268,1.624,1.204,0,2.044-.56,2.044-1.315,0-2.324-7.756-.98-7.756-6.104,0-2.884,2.408-4.536,5.544-4.536,3.332,0,5.628,1.849,5.628,4.396h-3.64c0-.84-.812-1.429-2.016-1.429-1.12,0-1.876.505-1.876,1.232,0,2.268,7.784.952,7.784,6.076,0,2.8-2.296,4.676-5.712,4.676-3.556,0-5.936-1.932-5.936-4.62Z"/>
      <path class="st13" d="M143.414,112.216h3.668c0,.98.952,1.624,2.268,1.624,1.204,0,2.044-.56,2.044-1.315,0-2.324-7.756-.98-7.756-6.104,0-2.884,2.408-4.536,5.544-4.536,3.332,0,5.628,1.849,5.628,4.396h-3.64c0-.84-.812-1.429-2.016-1.429-1.12,0-1.876.505-1.876,1.232,0,2.268,7.784.952,7.784,6.076,0,2.8-2.296,4.676-5.712,4.676-3.556,0-5.936-1.932-5.936-4.62Z"/>
      <path class="st13" d="M164.246,97.18h8.792c3.752,0,6.636,2.772,6.636,6.44s-2.884,6.439-6.636,6.439h-4.928v6.44h-3.864v-19.32ZM168.11,100.82v5.6h4.844c1.568,0,2.744-1.204,2.744-2.8s-1.176-2.8-2.744-2.8h-4.844Z"/>
      <path class="st13" d="M181.998,102.22h3.64v2.156c1.12-1.484,2.66-2.38,4.536-2.38h.532v3.752h-.532c-2.912,0-4.536,1.54-4.536,3.948v6.804h-3.64v-14.28Z"/>
      <path class="st13" d="M191.49,109.361c0-4.256,3.304-7.477,7.672-7.477s7.672,3.221,7.672,7.477-3.304,7.476-7.672,7.476-7.672-3.22-7.672-7.476ZM203.082,109.361c0-2.24-1.652-3.948-3.92-3.948-2.24,0-3.92,1.708-3.92,3.948s1.68,3.947,3.92,3.947c2.268,0,3.92-1.708,3.92-3.947Z"/>
      <path class="st13" d="M208.57,109.361c0-4.256,3.304-7.477,7.672-7.477,3.808,0,6.776,2.437,7.336,5.824h-3.864c-.476-1.372-1.82-2.296-3.472-2.296-2.24,0-3.92,1.708-3.92,3.948s1.68,3.947,3.92,3.947c1.652,0,2.996-.924,3.472-2.296h3.864c-.56,3.389-3.528,5.824-7.336,5.824-4.368,0-7.672-3.22-7.672-7.476Z"/>
      <path class="st13" d="M225.286,109.361c0-4.256,3.304-7.477,7.672-7.477s7.672,3.221,7.672,7.532c0,.392-.028.84-.112,1.204h-11.34c.476,1.848,1.96,3.052,3.92,3.052,1.484,0,2.716-.672,3.36-1.596h3.948c-1.092,2.828-3.92,4.76-7.392,4.76-4.424,0-7.728-3.22-7.728-7.476ZM229.206,107.96h7.532c-.448-1.736-1.904-2.912-3.78-2.912-1.848,0-3.248,1.148-3.752,2.912Z"/>
      <path class="st13" d="M242.281,112.216h3.668c0,.98.952,1.624,2.268,1.624,1.204,0,2.044-.56,2.044-1.315,0-2.324-7.756-.98-7.756-6.104,0-2.884,2.408-4.536,5.544-4.536,3.332,0,5.628,1.849,5.628,4.396h-3.64c0-.84-.812-1.429-2.016-1.429-1.12,0-1.876.505-1.876,1.232,0,2.268,7.784.952,7.784,6.076,0,2.8-2.296,4.676-5.712,4.676-3.556,0-5.936-1.932-5.936-4.62Z"/>
      <path class="st13" d="M255.609,112.216h3.668c0,.98.952,1.624,2.268,1.624,1.204,0,2.044-.56,2.044-1.315,0-2.324-7.756-.98-7.756-6.104,0-2.884,2.408-4.536,5.544-4.536,3.332,0,5.628,1.849,5.628,4.396h-3.64c0-.84-.812-1.429-2.016-1.429-1.12,0-1.876.505-1.876,1.232,0,2.268,7.784.952,7.784,6.076,0,2.8-2.296,4.676-5.712,4.676-3.556,0-5.936-1.932-5.936-4.62Z"/>
      <path class="st13" d="M268.965,109.361c0-4.256,3.304-7.477,7.672-7.477s7.672,3.221,7.672,7.532c0,.392-.028.84-.112,1.204h-11.34c.476,1.848,1.96,3.052,3.92,3.052,1.484,0,2.716-.672,3.36-1.596h3.948c-1.092,2.828-3.92,4.76-7.392,4.76-4.424,0-7.728-3.22-7.728-7.476ZM272.885,107.96h7.532c-.448-1.736-1.904-2.912-3.78-2.912-1.848,0-3.248,1.148-3.752,2.912Z"/>
      <path class="st13" d="M285.96,112.216h3.668c0,.98.952,1.624,2.268,1.624,1.204,0,2.044-.56,2.044-1.315,0-2.324-7.756-.98-7.756-6.104,0-2.884,2.408-4.536,5.544-4.536,3.332,0,5.628,1.849,5.628,4.396h-3.64c0-.84-.812-1.429-2.016-1.429-1.12,0-1.876.505-1.876,1.232,0,2.268,7.784.952,7.784,6.076,0,2.8-2.296,4.676-5.712,4.676-3.556,0-5.936-1.932-5.936-4.62Z"/>
    </g>
    <g class="st15">
      <path class="st13" d="M63.576,125.172h1.173l3.484,10.369,3.553-10.369h1.003l3.57,10.369,3.484-10.369h1.122l-4.062,11.729h-1.088l-3.536-10.216-3.519,10.216h-1.105l-4.08-11.729Z"/>
      <path class="st13" d="M81.205,132.565c0-2.583,1.972-4.538,4.59-4.538,2.601,0,4.572,1.955,4.572,4.538s-1.972,4.539-4.572,4.539c-2.618,0-4.59-1.955-4.59-4.539ZM89.347,132.565c0-2.039-1.513-3.586-3.553-3.586s-3.57,1.547-3.57,3.586,1.53,3.587,3.57,3.587,3.553-1.547,3.553-3.587Z"/>
      <path class="st13" d="M92.493,128.231h.986v1.887c.646-1.258,1.836-2.022,3.366-2.022h.221v1.02h-.221c-2.057,0-3.366,1.292-3.366,3.298v4.487h-.986v-8.669Z"/>
      <path class="st13" d="M98.783,124.662h.986v8.55l5.031-4.98h1.275l-3.909,3.893,4.045,4.776h-1.292l-3.468-4.08-1.683,1.684v2.396h-.986v-12.238Z"/>
      <path class="st13" d="M111.158,128.231h1.122l2.686,7.513,2.754-7.513h1.037l2.737,7.496,2.686-7.496h1.088l-3.247,8.669h-1.054l-2.754-7.53-2.753,7.53h-1.054l-3.247-8.669Z"/>
      <path class="st13" d="M126.849,125.613c0-.408.323-.714.714-.714.408,0,.731.306.731.714s-.323.714-.731.714c-.391,0-.714-.306-.714-.714ZM127.07,128.231h.986v8.669h-.986v-8.669Z"/>
      <path class="st13" d="M131.796,134.486v-5.354h-1.7v-.9h1.139c.391,0,.595-.221.595-.595v-1.87h.952v2.465h2.533v.9h-2.533v5.202c0,1.003.663,1.648,1.7,1.648h.833v.918h-.969c-1.598,0-2.55-.918-2.55-2.414Z"/>
      <path class="st13" d="M137.372,124.662h.986v5.201c.663-1.173,1.853-1.836,3.366-1.836,2.176,0,3.638,1.428,3.638,3.62v5.253h-.986v-4.964c0-1.784-1.173-2.957-2.941-2.957-1.836,0-3.077,1.189-3.077,2.991v4.93h-.986v-12.238Z"/>
      <path class="st13" d="M155.307,136.9l-3.927-8.669h1.139l3.349,7.53,3.349-7.53h1.104l-5.405,11.898h-1.071l1.462-3.229Z"/>
      <path class="st13" d="M160.968,132.565c0-2.583,1.972-4.538,4.59-4.538,2.601,0,4.572,1.955,4.572,4.538s-1.972,4.539-4.572,4.539c-2.618,0-4.59-1.955-4.59-4.539ZM169.11,132.565c0-2.039-1.513-3.586-3.553-3.586s-3.57,1.547-3.57,3.586,1.53,3.587,3.57,3.587,3.553-1.547,3.553-3.587Z"/>
      <path class="st13" d="M172.154,133.62v-5.389h.986v5.116c0,1.683,1.105,2.805,2.788,2.805,1.75,0,2.923-1.139,2.923-2.839v-5.082h.986v8.669h-.986v-1.513c-.646,1.088-1.768,1.717-3.212,1.717-2.091,0-3.485-1.377-3.485-3.484Z"/>
      <path class="st13" d="M182.523,128.231h.986v1.887c.646-1.258,1.836-2.022,3.366-2.022h.221v1.02h-.221c-2.057,0-3.366,1.292-3.366,3.298v4.487h-.986v-8.669Z"/>
      <path class="st13" d="M193.233,128.231h.986v1.988c.731-1.343,2.091-2.192,3.74-2.192,2.533,0,4.419,1.955,4.419,4.538s-1.887,4.539-4.419,4.539c-1.649,0-3.009-.85-3.74-2.193v5.219h-.986v-11.898ZM201.359,132.565c0-2.039-1.53-3.586-3.57-3.586s-3.57,1.547-3.57,3.586,1.53,3.587,3.57,3.587,3.57-1.547,3.57-3.587Z"/>
      <path class="st13" d="M204.504,128.231h.986v1.887c.646-1.258,1.836-2.022,3.366-2.022h.221v1.02h-.221c-2.057,0-3.366,1.292-3.366,3.298v4.487h-.986v-8.669Z"/>
      <path class="st13" d="M209.655,132.565c0-2.583,1.972-4.538,4.59-4.538,2.601,0,4.572,1.955,4.572,4.538s-1.972,4.539-4.572,4.539c-2.618,0-4.59-1.955-4.59-4.539ZM217.798,132.565c0-2.039-1.513-3.586-3.553-3.586s-3.57,1.547-3.57,3.586,1.53,3.587,3.57,3.587,3.553-1.547,3.553-3.587Z"/>
      <path class="st13" d="M219.464,128.231h1.139l3.349,7.513,3.349-7.513h1.104l-3.943,8.669h-1.054l-3.944-8.669Z"/>
      <path class="st13" d="M229.052,132.565c0-2.583,1.972-4.538,4.573-4.538,2.618,0,4.589,1.955,4.589,4.538,0,.137-.017.289-.034.408h-8.091c.187,1.87,1.649,3.213,3.604,3.213,1.462,0,2.72-.748,3.264-1.87h1.105c-.663,1.666-2.363,2.788-4.386,2.788-2.651,0-4.624-1.955-4.624-4.539ZM230.089,132.09h7.088c-.17-1.733-1.598-3.145-3.553-3.145-1.87,0-3.315,1.309-3.536,3.145Z"/>
      <path class="st13" d="M240.289,128.231h.986v1.598c.663-1.139,1.853-1.802,3.366-1.802,2.176,0,3.638,1.428,3.638,3.62v5.253h-.986v-4.964c0-1.784-1.173-2.957-2.941-2.957-1.835,0-3.077,1.189-3.077,2.991v4.93h-.986v-8.669Z"/>
      <path class="st13" d="M254.739,132.565c0-2.583,1.887-4.538,4.403-4.538,1.666,0,3.008.85,3.739,2.192v-1.988h.986v8.669h-.986v-1.989c-.731,1.344-2.074,2.193-3.739,2.193-2.516,0-4.403-1.955-4.403-4.539ZM262.881,132.565c0-2.039-1.53-3.586-3.569-3.586-2.023,0-3.553,1.547-3.553,3.586s1.53,3.587,3.553,3.587c2.04,0,3.569-1.547,3.569-3.587Z"/>
      <path class="st13" d="M266.554,128.231h.986v1.988c.731-1.343,2.091-2.192,3.74-2.192,2.533,0,4.419,1.955,4.419,4.538s-1.887,4.539-4.419,4.539c-1.649,0-3.009-.85-3.74-2.193v5.219h-.986v-11.898ZM274.679,132.565c0-2.039-1.53-3.586-3.57-3.586s-3.57,1.547-3.57,3.586,1.53,3.587,3.57,3.587,3.57-1.547,3.57-3.587Z"/>
      <path class="st13" d="M277.825,128.231h.986v1.988c.731-1.343,2.091-2.192,3.74-2.192,2.533,0,4.419,1.955,4.419,4.538s-1.887,4.539-4.419,4.539c-1.649,0-3.009-.85-3.74-2.193v5.219h-.986v-11.898ZM285.95,132.565c0-2.039-1.53-3.586-3.57-3.586s-3.57,1.547-3.57,3.586,1.53,3.587,3.57,3.587,3.57-1.547,3.57-3.587Z"/>
      <path class="st13" d="M288.501,134.52h1.02c0,1.021.901,1.683,2.261,1.683,1.309,0,2.176-.629,2.176-1.547,0-2.227-5.321-1.104-5.321-4.147,0-1.495,1.224-2.481,3.077-2.481,1.887,0,3.128.986,3.128,2.481h-1.02c0-.952-.85-1.581-2.125-1.581-1.224,0-2.04.596-2.04,1.479,0,2.192,5.32,1.07,5.32,4.147,0,1.529-1.275,2.55-3.195,2.55-1.989,0-3.281-1.037-3.281-2.584Z"/>
    </g>
  </g>
  <g class="st15">
    <g class="st15">
      <path class="st13" d="M152.208,324.14c0-5.684,4.368-9.996,10.192-9.996,4.536,0,8.316,2.66,9.436,6.412h-4.312c-1.036-1.651-2.912-2.688-5.124-2.688-3.556,0-6.244,2.688-6.244,6.271s2.688,6.272,6.244,6.272c2.772,0,5.04-1.597,5.74-3.977h-5.124v-3.5h9.296v1.345c0,5.6-4.172,9.855-9.912,9.855-5.824,0-10.192-4.312-10.192-9.996Z"/>
      <path class="st13" d="M175.056,319.52h3.64v2.156c1.12-1.484,2.66-2.38,4.536-2.38h.532v3.752h-.532c-2.912,0-4.536,1.54-4.536,3.948v6.804h-3.64v-14.28Z"/>
      <path class="st13" d="M184.604,326.66c0-4.256,2.996-7.477,6.972-7.477,1.904,0,3.5.756,4.648,2.017v-1.681h3.64v14.28h-3.64v-1.68c-1.148,1.26-2.744,2.016-4.648,2.016-3.976,0-6.972-3.22-6.972-7.476ZM196.224,326.66c0-2.24-1.68-3.948-3.948-3.948-2.24,0-3.92,1.708-3.92,3.948s1.68,3.947,3.92,3.947c2.268,0,3.948-1.708,3.948-3.947Z"/>
      <path class="st13" d="M203.335,319.52h3.64v1.681c1.148-1.261,2.744-2.017,4.648-2.017,3.976,0,6.944,3.221,6.944,7.477s-2.968,7.476-6.944,7.476c-1.904,0-3.5-.756-4.648-2.016v7h-3.64v-19.601ZM214.815,326.66c0-2.24-1.652-3.948-3.92-3.948-2.24,0-3.92,1.708-3.92,3.948s1.68,3.947,3.92,3.947c2.268,0,3.92-1.708,3.92-3.947Z"/>
      <path class="st13" d="M221.312,313.64h3.64v7.561c1.12-1.316,2.688-2.017,4.536-2.017,3.36,0,5.572,2.185,5.572,5.544v9.072h-3.64v-7.896c0-1.933-1.232-3.192-3.108-3.192-2.016,0-3.36,1.288-3.36,3.248v7.84h-3.64v-20.16Z"/>
      <path class="st13" d="M236.152,319.52h4.172l2.884,9.632,3.052-9.632h3.724l3.024,9.632,2.912-9.632h4.06l-5.096,14.28h-3.752l-3.052-9.912-3.08,9.912h-3.752l-5.096-14.28Z"/>
      <path class="st13" d="M261.52,315.237c0-1.288,1.008-2.269,2.296-2.269s2.296.98,2.296,2.269-1.008,2.268-2.296,2.268-2.296-.98-2.296-2.268ZM261.996,319.52h3.64v14.28h-3.64v-14.28Z"/>
      <path class="st13" d="M268.267,329.516h3.668c0,.98.952,1.624,2.268,1.624,1.204,0,2.044-.56,2.044-1.315,0-2.324-7.756-.98-7.756-6.104,0-2.884,2.408-4.536,5.544-4.536,3.332,0,5.628,1.849,5.628,4.396h-3.64c0-.84-.812-1.429-2.016-1.429-1.12,0-1.876.505-1.876,1.232,0,2.268,7.784.952,7.784,6.076,0,2.8-2.296,4.676-5.712,4.676-3.556,0-5.936-1.932-5.936-4.62Z"/>
      <path class="st13" d="M281.624,326.66c0-4.256,3.304-7.477,7.672-7.477s7.672,3.221,7.672,7.532c0,.392-.028.84-.112,1.204h-11.34c.476,1.848,1.96,3.052,3.92,3.052,1.484,0,2.716-.672,3.36-1.596h3.948c-1.092,2.828-3.92,4.76-7.392,4.76-4.424,0-7.728-3.22-7.728-7.476ZM285.543,325.26h7.532c-.448-1.736-1.904-2.912-3.78-2.912-1.848,0-3.248,1.148-3.752,2.912Z"/>
    </g>
    <g class="st15">
      <path class="st13" d="M88.152,361.688h3.976c0,1.456,1.456,2.604,3.304,2.604,1.708,0,3.108-.924,3.108-2.239,0-3.389-10.08-1.876-10.08-8.456,0-3.557,3.024-5.853,6.832-5.853,3.92,0,6.916,2.492,6.916,5.796h-3.976c0-1.344-1.288-2.352-2.996-2.352-1.512,0-2.8.812-2.8,2.1,0,3.444,10.08,1.624,10.08,8.316,0,3.724-3.136,6.132-7.112,6.132-4.144,0-7.252-2.632-7.252-6.048Z"/>
      <path class="st13" d="M104.392,360.26c0-4.256,3.304-7.477,7.672-7.477s7.672,3.221,7.672,7.532c0,.392-.028.84-.112,1.204h-11.34c.476,1.848,1.96,3.052,3.92,3.052,1.484,0,2.716-.672,3.36-1.596h3.948c-1.092,2.828-3.92,4.76-7.392,4.76-4.424,0-7.728-3.22-7.728-7.476ZM108.312,358.86h7.532c-.448-1.736-1.904-2.912-3.78-2.912-1.848,0-3.248,1.148-3.752,2.912Z"/>
      <path class="st13" d="M122.284,353.119h3.64v1.484c1.064-1.204,2.492-1.82,4.228-1.82,2.044,0,3.668.924,4.536,2.464,1.12-1.596,2.8-2.464,4.9-2.464,3.136,0,5.236,2.101,5.236,5.32v9.296h-3.64v-8.204c0-1.736-1.092-2.884-2.8-2.884-1.792,0-2.996,1.176-2.996,2.939v8.148h-3.64v-8.204c0-1.736-1.12-2.884-2.8-2.884-1.792,0-3.024,1.176-3.024,2.939v8.148h-3.64v-14.28Z"/>
      <path class="st13" d="M147.399,360.26c0-4.256,2.996-7.477,6.972-7.477,1.904,0,3.5.756,4.648,2.017v-1.681h3.64v14.28h-3.64v-1.68c-1.148,1.26-2.744,2.016-4.648,2.016-3.976,0-6.972-3.22-6.972-7.476ZM159.019,360.26c0-2.24-1.68-3.948-3.948-3.948-2.24,0-3.92,1.708-3.92,3.948s1.68,3.947,3.92,3.947c2.268,0,3.948-1.708,3.948-3.947Z"/>
      <path class="st13" d="M166.131,353.119h3.64v1.597c1.12-1.261,2.688-1.933,4.536-1.933,3.36,0,5.572,2.185,5.572,5.544v9.072h-3.64v-7.896c0-1.933-1.232-3.192-3.108-3.192-2.016,0-3.36,1.288-3.36,3.248v7.84h-3.64v-14.28Z"/>
      <path class="st13" d="M184.051,362.892v-6.44h-2.268v-3.332h1.288c.756,0,1.176-.392,1.176-1.147v-2.66h3.444v3.808h3.304v3.332h-3.304v5.824c0,1.12.7,1.792,1.876,1.792h1.428v3.332h-1.96c-3.276,0-4.984-1.568-4.984-4.508Z"/>
      <path class="st13" d="M193.291,348.836c0-1.288,1.008-2.269,2.296-2.269s2.296.98,2.296,2.269-1.008,2.268-2.296,2.268-2.296-.98-2.296-2.268ZM193.767,353.119h3.64v14.28h-3.64v-14.28Z"/>
      <path class="st13" d="M200.066,360.26c0-4.256,3.304-7.477,7.672-7.477,3.808,0,6.776,2.437,7.336,5.824h-3.864c-.476-1.372-1.82-2.296-3.472-2.296-2.24,0-3.92,1.708-3.92,3.948s1.68,3.947,3.92,3.947c1.652,0,2.996-.924,3.472-2.296h3.864c-.56,3.389-3.528,5.824-7.336,5.824-4.368,0-7.672-3.22-7.672-7.476Z"/>
      <path class="st13" d="M224.258,348.079h3.864v15.681h8.148v3.64h-12.012v-19.32Z"/>
      <path class="st13" d="M237.586,360.26c0-4.256,2.996-7.477,6.972-7.477,1.904,0,3.5.756,4.648,2.017v-1.681h3.64v14.28h-3.64v-1.68c-1.148,1.26-2.744,2.016-4.648,2.016-3.976,0-6.972-3.22-6.972-7.476ZM249.206,360.26c0-2.24-1.68-3.948-3.948-3.948-2.24,0-3.92,1.708-3.92,3.948s1.68,3.947,3.92,3.947c2.268,0,3.948-1.708,3.948-3.947Z"/>
      <path class="st13" d="M260.602,367.26l-5.852-14.141h4.144l3.696,9.716,3.696-9.716h4.088l-8.148,19.601h-3.92l2.296-5.46Z"/>
      <path class="st13" d="M270.57,360.26c0-4.256,3.304-7.477,7.672-7.477s7.672,3.221,7.672,7.532c0,.392-.028.84-.112,1.204h-11.34c.476,1.848,1.96,3.052,3.92,3.052,1.484,0,2.716-.672,3.36-1.596h3.948c-1.092,2.828-3.92,4.76-7.392,4.76-4.424,0-7.728-3.22-7.728-7.476ZM274.49,358.86h7.532c-.448-1.736-1.904-2.912-3.78-2.912-1.848,0-3.248,1.148-3.752,2.912Z"/>
      <path class="st13" d="M288.461,353.119h3.64v2.156c1.12-1.484,2.66-2.38,4.536-2.38h.532v3.752h-.532c-2.912,0-4.536,1.54-4.536,3.948v6.804h-3.64v-14.28Z"/>
    </g>
    <g class="st15">
      <path class="st13" d="M91.936,376.071h1.258l4.947,11.729h-1.173l-1.343-3.213h-6.154l-1.343,3.213h-1.139l4.946-11.729ZM95.216,383.618l-2.668-6.408-2.669,6.408h5.337Z"/>
      <path class="st13" d="M99.076,383.465c0-2.583,1.887-4.538,4.403-4.538,1.666,0,3.008.85,3.739,2.192v-5.558h.986v12.238h-.986v-1.989c-.731,1.344-2.074,2.193-3.739,2.193-2.516,0-4.403-1.955-4.403-4.539ZM107.218,383.465c0-2.039-1.53-3.586-3.569-3.586-2.023,0-3.553,1.547-3.553,3.586s1.53,3.587,3.553,3.587c2.04,0,3.569-1.547,3.569-3.587Z"/>
      <path class="st13" d="M110.381,383.465c0-2.583,1.887-4.538,4.403-4.538,1.666,0,3.008.85,3.739,2.192v-5.558h.986v12.238h-.986v-1.989c-.731,1.344-2.074,2.193-3.739,2.193-2.516,0-4.403-1.955-4.403-4.539ZM118.523,383.465c0-2.039-1.53-3.586-3.569-3.586-2.023,0-3.553,1.547-3.553,3.586s1.53,3.587,3.553,3.587c2.04,0,3.569-1.547,3.569-3.587Z"/>
      <path class="st13" d="M126.055,385.42h1.02c0,1.021.901,1.683,2.261,1.683,1.309,0,2.176-.629,2.176-1.547,0-2.227-5.321-1.104-5.321-4.147,0-1.495,1.224-2.481,3.077-2.481,1.887,0,3.128.986,3.128,2.481h-1.02c0-.952-.85-1.581-2.125-1.581-1.224,0-2.04.596-2.04,1.479,0,2.192,5.32,1.07,5.32,4.147,0,1.529-1.275,2.55-3.195,2.55-1.989,0-3.281-1.037-3.281-2.584Z"/>
      <path class="st13" d="M134.062,383.465c0-2.583,1.972-4.538,4.573-4.538,2.618,0,4.589,1.955,4.589,4.538,0,.137-.017.289-.034.408h-8.091c.187,1.87,1.649,3.213,3.604,3.213,1.462,0,2.72-.748,3.264-1.87h1.105c-.663,1.666-2.363,2.788-4.386,2.788-2.651,0-4.624-1.955-4.624-4.539ZM135.099,382.989h7.088c-.17-1.733-1.598-3.145-3.553-3.145-1.87,0-3.315,1.309-3.536,3.145Z"/>
      <path class="st13" d="M145.298,379.131h.986v1.394c.612-1.02,1.666-1.598,3.026-1.598,1.479,0,2.601.73,3.06,1.955.561-1.241,1.717-1.955,3.247-1.955,1.989,0,3.298,1.309,3.298,3.298v5.575h-.986v-5.304c0-1.581-1.02-2.617-2.601-2.617-1.632,0-2.72,1.054-2.72,2.651v5.27h-.986v-5.304c0-1.581-1.037-2.617-2.601-2.617-1.632,0-2.737,1.054-2.737,2.651v5.27h-.986v-8.669Z"/>
      <path class="st13" d="M161.023,383.465c0-2.583,1.887-4.538,4.403-4.538,1.666,0,3.008.85,3.739,2.192v-1.988h.986v8.669h-.986v-1.989c-.731,1.344-2.074,2.193-3.739,2.193-2.516,0-4.403-1.955-4.403-4.539ZM169.166,383.465c0-2.039-1.53-3.586-3.569-3.586-2.023,0-3.553,1.547-3.553,3.586s1.53,3.587,3.553,3.587c2.04,0,3.569-1.547,3.569-3.587Z"/>
      <path class="st13" d="M172.838,379.131h.986v1.598c.663-1.139,1.853-1.802,3.366-1.802,2.176,0,3.638,1.428,3.638,3.62v5.253h-.986v-4.964c0-1.784-1.173-2.957-2.941-2.957-1.835,0-3.077,1.189-3.077,2.991v4.93h-.986v-8.669Z"/>
      <path class="st13" d="M184.109,385.386v-5.354h-1.7v-.9h1.139c.391,0,.595-.221.595-.595v-1.87h.952v2.465h2.533v.9h-2.533v5.202c0,1.003.663,1.648,1.7,1.648h.833v.918h-.969c-1.598,0-2.55-.918-2.55-2.414Z"/>
      <path class="st13" d="M189.464,376.513c0-.408.323-.714.714-.714.408,0,.731.306.731.714s-.323.714-.731.714c-.391,0-.714-.306-.714-.714ZM189.685,379.131h.986v8.669h-.986v-8.669Z"/>
      <path class="st13" d="M192.847,383.465c0-2.583,1.972-4.538,4.59-4.538,2.125,0,3.841,1.326,4.267,3.213h-1.037c-.408-1.343-1.683-2.261-3.229-2.261-2.04,0-3.57,1.547-3.57,3.586s1.53,3.587,3.57,3.587c1.547,0,2.822-.918,3.229-2.261h1.037c-.425,1.887-2.142,3.213-4.267,3.213-2.618,0-4.59-1.955-4.59-4.539Z"/>
      <path class="st13" d="M203.217,385.42h1.02c0,1.021.901,1.683,2.261,1.683,1.309,0,2.176-.629,2.176-1.547,0-2.227-5.321-1.104-5.321-4.147,0-1.495,1.224-2.481,3.077-2.481,1.887,0,3.128.986,3.128,2.481h-1.02c0-.952-.85-1.581-2.125-1.581-1.224,0-2.04.596-2.04,1.479,0,2.192,5.32,1.07,5.32,4.147,0,1.529-1.275,2.55-3.195,2.55-1.989,0-3.281-1.037-3.281-2.584Z"/>
      <path class="st13" d="M217.208,385.386v-5.354h-1.7v-.9h1.139c.391,0,.595-.221.595-.595v-1.87h.952v2.465h2.533v.9h-2.533v5.202c0,1.003.663,1.648,1.7,1.648h.833v.918h-.969c-1.598,0-2.55-.918-2.55-2.414Z"/>
      <path class="st13" d="M222.07,383.465c0-2.583,1.972-4.538,4.59-4.538,2.601,0,4.572,1.955,4.572,4.538s-1.972,4.539-4.572,4.539c-2.618,0-4.59-1.955-4.59-4.539ZM230.212,383.465c0-2.039-1.513-3.586-3.553-3.586s-3.57,1.547-3.57,3.586,1.53,3.587,3.57,3.587,3.553-1.547,3.553-3.587Z"/>
      <path class="st13" d="M238.781,385.386v-5.354h-1.7v-.9h1.139c.391,0,.595-.221.595-.595v-1.87h.952v2.465h2.533v.9h-2.533v5.202c0,1.003.663,1.648,1.7,1.648h.833v.918h-.969c-1.598,0-2.55-.918-2.55-2.414Z"/>
      <path class="st13" d="M244.357,375.562h.986v5.201c.663-1.173,1.853-1.836,3.366-1.836,2.176,0,3.638,1.428,3.638,3.62v5.253h-.986v-4.964c0-1.784-1.173-2.957-2.941-2.957-1.836,0-3.077,1.189-3.077,2.991v4.93h-.986v-12.238Z"/>
      <path class="st13" d="M254.438,383.465c0-2.583,1.972-4.538,4.573-4.538,2.618,0,4.589,1.955,4.589,4.538,0,.137-.017.289-.034.408h-8.091c.187,1.87,1.649,3.213,3.604,3.213,1.462,0,2.72-.748,3.264-1.87h1.105c-.663,1.666-2.363,2.788-4.386,2.788-2.651,0-4.624-1.955-4.624-4.539ZM255.475,382.989h7.088c-.17-1.733-1.598-3.145-3.553-3.145-1.87,0-3.315,1.309-3.536,3.145Z"/>
      <path class="st13" d="M270.094,379.131h.986v1.394c.612-1.02,1.666-1.598,3.026-1.598,1.479,0,2.601.73,3.06,1.955.561-1.241,1.717-1.955,3.247-1.955,1.989,0,3.298,1.309,3.298,3.298v5.575h-.986v-5.304c0-1.581-1.02-2.617-2.601-2.617-1.632,0-2.72,1.054-2.72,2.651v5.27h-.986v-5.304c0-1.581-1.037-2.617-2.601-2.617-1.632,0-2.737,1.054-2.737,2.651v5.27h-.986v-8.669Z"/>
      <path class="st13" d="M286.159,376.513c0-.408.323-.714.714-.714.408,0,.731.306.731.714s-.323.714-.731.714c-.391,0-.714-.306-.714-.714ZM286.38,379.131h.986v8.669h-.986v-8.669Z"/>
      <path class="st13" d="M292.924,383.448l-3.434-4.317h1.224l2.907,3.688,2.907-3.688h1.207l-3.434,4.317,3.484,4.352h-1.207l-2.975-3.723-2.958,3.723h-1.207l3.485-4.352Z"/>
    </g>
  </g>
  <g class="st15">
    <g class="st15">
      <path class="st13" d="M60.06,568.88h7.56c5.628,0,9.856,4.145,9.856,9.66s-4.228,9.66-9.856,9.66h-7.56v-19.32ZM63.924,572.521v12.04h3.612c3.416,0,5.964-2.576,5.964-6.021s-2.548-6.02-5.964-6.02h-3.612Z"/>
      <path class="st13" d="M79.52,581.061c0-4.256,2.996-7.477,6.972-7.477,1.904,0,3.5.756,4.648,2.017v-1.681h3.64v14.28h-3.64v-1.68c-1.148,1.26-2.744,2.016-4.648,2.016-3.976,0-6.972-3.22-6.972-7.476ZM91.14,581.061c0-2.24-1.68-3.948-3.948-3.948-2.24,0-3.92,1.708-3.92,3.948s1.68,3.947,3.92,3.947c2.268,0,3.948-1.708,3.948-3.947Z"/>
      <path class="st13" d="M99.596,583.693v-6.44h-2.268v-3.332h1.288c.756,0,1.176-.392,1.176-1.147v-2.66h3.444v3.808h3.304v3.332h-3.304v5.824c0,1.12.7,1.792,1.876,1.792h1.428v3.332h-1.96c-3.276,0-4.984-1.568-4.984-4.508Z"/>
      <path class="st13" d="M108.36,581.061c0-4.256,2.996-7.477,6.972-7.477,1.904,0,3.5.756,4.648,2.017v-1.681h3.64v14.28h-3.64v-1.68c-1.148,1.26-2.744,2.016-4.648,2.016-3.976,0-6.972-3.22-6.972-7.476ZM119.98,581.061c0-2.24-1.68-3.948-3.948-3.948-2.24,0-3.92,1.708-3.92,3.948s1.68,3.947,3.92,3.947c2.268,0,3.948-1.708,3.948-3.947Z"/>
      <path class="st13" d="M133.7,568.88h8.596c3.724,0,6.552,2.717,6.552,6.328,0,2.772-1.736,4.984-4.284,5.769l4.844,7.224h-4.788l-4.424-6.888h-2.632v6.888h-3.864v-19.32ZM137.564,572.521v5.432h4.648c1.512,0,2.66-1.176,2.66-2.716s-1.148-2.716-2.66-2.716h-4.648Z"/>
      <path class="st13" d="M150.612,581.061c0-4.256,3.304-7.477,7.672-7.477s7.672,3.221,7.672,7.532c0,.392-.028.84-.112,1.204h-11.34c.476,1.848,1.96,3.052,3.92,3.052,1.484,0,2.716-.672,3.36-1.596h3.948c-1.092,2.828-3.92,4.76-7.392,4.76-4.424,0-7.728-3.22-7.728-7.476ZM154.532,579.66h7.532c-.448-1.736-1.904-2.912-3.78-2.912-1.848,0-3.248,1.148-3.752,2.912Z"/>
      <path class="st13" d="M168.503,573.92h3.64v1.681c1.148-1.261,2.744-2.017,4.648-2.017,3.976,0,6.944,3.221,6.944,7.477s-2.968,7.476-6.944,7.476c-1.904,0-3.5-.756-4.648-2.016v7h-3.64v-19.601ZM179.983,581.061c0-2.24-1.652-3.948-3.92-3.948-2.24,0-3.92,1.708-3.92,3.948s1.68,3.947,3.92,3.947c2.268,0,3.92-1.708,3.92-3.947Z"/>
      <path class="st13" d="M185.555,581.061c0-4.256,3.304-7.477,7.672-7.477s7.672,3.221,7.672,7.477-3.304,7.476-7.672,7.476-7.672-3.22-7.672-7.476ZM197.147,581.061c0-2.24-1.652-3.948-3.92-3.948-2.24,0-3.92,1.708-3.92,3.948s1.68,3.947,3.92,3.947c2.268,0,3.92-1.708,3.92-3.947Z"/>
      <path class="st13" d="M202.606,583.916h3.668c0,.98.952,1.624,2.268,1.624,1.204,0,2.044-.56,2.044-1.315,0-2.324-7.756-.98-7.756-6.104,0-2.884,2.408-4.536,5.544-4.536,3.332,0,5.628,1.849,5.628,4.396h-3.64c0-.84-.812-1.429-2.016-1.429-1.12,0-1.876.505-1.876,1.232,0,2.268,7.784.952,7.784,6.076,0,2.8-2.296,4.676-5.712,4.676-3.556,0-5.936-1.932-5.936-4.62Z"/>
      <path class="st13" d="M216.411,569.637c0-1.288,1.008-2.269,2.296-2.269s2.296.98,2.296,2.269-1.008,2.268-2.296,2.268-2.296-.98-2.296-2.268ZM216.887,573.92h3.64v14.28h-3.64v-14.28Z"/>
      <path class="st13" d="M225.398,583.693v-6.44h-2.268v-3.332h1.288c.756,0,1.176-.392,1.176-1.147v-2.66h3.444v3.808h3.304v3.332h-3.304v5.824c0,1.12.7,1.792,1.876,1.792h1.428v3.332h-1.96c-3.276,0-4.984-1.568-4.984-4.508Z"/>
      <path class="st13" d="M234.107,581.061c0-4.256,3.304-7.477,7.672-7.477s7.672,3.221,7.672,7.477-3.304,7.476-7.672,7.476-7.672-3.22-7.672-7.476ZM245.699,581.061c0-2.24-1.652-3.948-3.92-3.948-2.24,0-3.92,1.708-3.92,3.948s1.68,3.947,3.92,3.947c2.268,0,3.92-1.708,3.92-3.947Z"/>
      <path class="st13" d="M252.054,573.92h3.64v2.156c1.12-1.484,2.66-2.38,4.536-2.38h.532v3.752h-.532c-2.912,0-4.536,1.54-4.536,3.948v6.804h-3.64v-14.28Z"/>
      <path class="st13" d="M262.666,569.637c0-1.288,1.008-2.269,2.296-2.269s2.296.98,2.296,2.269-1.008,2.268-2.296,2.268-2.296-.98-2.296-2.268ZM263.142,573.92h3.64v14.28h-3.64v-14.28Z"/>
      <path class="st13" d="M269.442,581.061c0-4.256,3.304-7.477,7.672-7.477s7.672,3.221,7.672,7.532c0,.392-.028.84-.112,1.204h-11.34c.476,1.848,1.96,3.052,3.92,3.052,1.484,0,2.716-.672,3.36-1.596h3.948c-1.092,2.828-3.92,4.76-7.392,4.76-4.424,0-7.728-3.22-7.728-7.476ZM273.362,579.66h7.532c-.448-1.736-1.904-2.912-3.78-2.912-1.848,0-3.248,1.148-3.752,2.912Z"/>
      <path class="st13" d="M286.437,583.916h3.668c0,.98.952,1.624,2.268,1.624,1.204,0,2.044-.56,2.044-1.315,0-2.324-7.756-.98-7.756-6.104,0-2.884,2.408-4.536,5.544-4.536,3.332,0,5.628,1.849,5.628,4.396h-3.64c0-.84-.812-1.429-2.016-1.429-1.12,0-1.876.505-1.876,1.232,0,2.268,7.784.952,7.784,6.076,0,2.8-2.296,4.676-5.712,4.676-3.556,0-5.936-1.932-5.936-4.62Z"/>
    </g>
    <g class="st15">
      <path class="st13" d="M82.713,596.871h1.037v6.442l6.272-6.442h1.326l-5.083,5.32,5.32,6.408h-1.343l-4.691-5.678-1.802,1.802v3.876h-1.037v-11.729Z"/>
      <path class="st13" d="M91.808,604.265c0-2.583,1.972-4.538,4.573-4.538,2.618,0,4.589,1.955,4.589,4.538,0,.137-.017.289-.034.408h-8.091c.187,1.87,1.649,3.213,3.604,3.213,1.462,0,2.72-.748,3.264-1.87h1.105c-.663,1.666-2.363,2.788-4.386,2.788-2.651,0-4.624-1.955-4.624-4.539ZM92.845,603.789h7.088c-.17-1.733-1.598-3.145-3.553-3.145-1.87,0-3.315,1.309-3.536,3.145Z"/>
      <path class="st13" d="M102.483,604.265c0-2.583,1.972-4.538,4.573-4.538,2.618,0,4.589,1.955,4.589,4.538,0,.137-.017.289-.034.408h-8.091c.187,1.87,1.649,3.213,3.604,3.213,1.462,0,2.72-.748,3.264-1.87h1.105c-.663,1.666-2.363,2.788-4.386,2.788-2.651,0-4.624-1.955-4.624-4.539ZM103.521,603.789h7.088c-.17-1.733-1.598-3.145-3.553-3.145-1.87,0-3.315,1.309-3.536,3.145Z"/>
      <path class="st13" d="M113.72,599.931h.986v1.988c.731-1.343,2.091-2.192,3.74-2.192,2.533,0,4.419,1.955,4.419,4.538s-1.887,4.539-4.419,4.539c-1.649,0-3.009-.85-3.74-2.193v5.219h-.986v-11.898ZM121.846,604.265c0-2.039-1.53-3.586-3.57-3.586s-3.57,1.547-3.57,3.586,1.53,3.587,3.57,3.587,3.57-1.547,3.57-3.587Z"/>
      <path class="st13" d="M132.352,608.6l-3.927-8.669h1.139l3.349,7.53,3.349-7.53h1.104l-5.405,11.898h-1.071l1.462-3.229Z"/>
      <path class="st13" d="M138.013,604.265c0-2.583,1.972-4.538,4.59-4.538,2.601,0,4.572,1.955,4.572,4.538s-1.972,4.539-4.572,4.539c-2.618,0-4.59-1.955-4.59-4.539ZM146.156,604.265c0-2.039-1.513-3.586-3.553-3.586s-3.57,1.547-3.57,3.586,1.53,3.587,3.57,3.587,3.553-1.547,3.553-3.587Z"/>
      <path class="st13" d="M149.199,605.32v-5.389h.986v5.116c0,1.683,1.105,2.805,2.788,2.805,1.75,0,2.923-1.139,2.923-2.839v-5.082h.986v8.669h-.986v-1.513c-.646,1.088-1.768,1.717-3.212,1.717-2.091,0-3.485-1.377-3.485-3.484Z"/>
      <path class="st13" d="M159.569,599.931h.986v1.887c.646-1.258,1.836-2.022,3.366-2.022h.221v1.02h-.221c-2.057,0-3.366,1.292-3.366,3.298v4.487h-.986v-8.669Z"/>
      <path class="st13" d="M169.735,604.265c0-2.583,1.887-4.538,4.403-4.538,1.666,0,3.008.85,3.739,2.192v-5.558h.986v12.238h-.986v-1.989c-.731,1.344-2.074,2.193-3.739,2.193-2.516,0-4.403-1.955-4.403-4.539ZM177.877,604.265c0-2.039-1.53-3.586-3.569-3.586-2.023,0-3.553,1.547-3.553,3.586s1.53,3.587,3.553,3.587c2.04,0,3.569-1.547,3.569-3.587Z"/>
      <path class="st13" d="M181.04,604.265c0-2.583,1.887-4.538,4.403-4.538,1.666,0,3.008.85,3.739,2.192v-1.988h.986v8.669h-.986v-1.989c-.731,1.344-2.074,2.193-3.739,2.193-2.516,0-4.403-1.955-4.403-4.539ZM189.182,604.265c0-2.039-1.53-3.586-3.569-3.586-2.023,0-3.553,1.547-3.553,3.586s1.53,3.587,3.553,3.587c2.04,0,3.569-1.547,3.569-3.587Z"/>
      <path class="st13" d="M193.857,606.186v-5.354h-1.7v-.9h1.139c.391,0,.595-.221.595-.595v-1.87h.952v2.465h2.533v.9h-2.533v5.202c0,1.003.663,1.648,1.7,1.648h.833v.918h-.969c-1.598,0-2.55-.918-2.55-2.414Z"/>
      <path class="st13" d="M198.737,604.265c0-2.583,1.887-4.538,4.403-4.538,1.666,0,3.008.85,3.739,2.192v-1.988h.986v8.669h-.986v-1.989c-.731,1.344-2.074,2.193-3.739,2.193-2.516,0-4.403-1.955-4.403-4.539ZM206.879,604.265c0-2.039-1.53-3.586-3.569-3.586-2.023,0-3.553,1.547-3.553,3.586s1.53,3.587,3.553,3.587c2.04,0,3.569-1.547,3.569-3.587Z"/>
      <path class="st13" d="M214.054,599.931h1.122l2.686,7.513,2.754-7.513h1.037l2.736,7.496,2.686-7.496h1.088l-3.247,8.669h-1.054l-2.753-7.53-2.754,7.53h-1.054l-3.247-8.669Z"/>
      <path class="st13" d="M229.965,596.362h.986v5.201c.663-1.173,1.853-1.836,3.366-1.836,2.176,0,3.638,1.428,3.638,3.62v5.253h-.986v-4.964c0-1.784-1.173-2.957-2.941-2.957-1.836,0-3.077,1.189-3.077,2.991v4.93h-.986v-12.238Z"/>
      <path class="st13" d="M240.046,604.265c0-2.583,1.972-4.538,4.573-4.538,2.618,0,4.589,1.955,4.589,4.538,0,.137-.017.289-.034.408h-8.091c.187,1.87,1.649,3.213,3.604,3.213,1.462,0,2.72-.748,3.264-1.87h1.105c-.663,1.666-2.363,2.788-4.386,2.788-2.651,0-4.624-1.955-4.624-4.539ZM241.083,603.789h7.088c-.17-1.733-1.598-3.145-3.553-3.145-1.87,0-3.314,1.309-3.536,3.145Z"/>
      <path class="st13" d="M251.283,599.931h.986v1.887c.646-1.258,1.836-2.022,3.366-2.022h.221v1.02h-.221c-2.057,0-3.366,1.292-3.366,3.298v4.487h-.986v-8.669Z"/>
      <path class="st13" d="M256.434,604.265c0-2.583,1.972-4.538,4.573-4.538,2.618,0,4.589,1.955,4.589,4.538,0,.137-.017.289-.034.408h-8.091c.187,1.87,1.649,3.213,3.604,3.213,1.462,0,2.72-.748,3.264-1.87h1.105c-.663,1.666-2.363,2.788-4.386,2.788-2.651,0-4.624-1.955-4.624-4.539ZM257.471,603.789h7.088c-.17-1.733-1.598-3.145-3.553-3.145-1.87,0-3.314,1.309-3.536,3.145Z"/>
      <path class="st13" d="M271.904,597.313c0-.408.323-.714.714-.714.408,0,.731.306.731.714s-.323.714-.731.714c-.391,0-.714-.306-.714-.714ZM272.125,599.931h.986v8.669h-.986v-8.669Z"/>
      <path class="st13" d="M276.851,606.186v-5.354h-1.7v-.9h1.139c.391,0,.595-.221.595-.595v-1.87h.952v2.465h2.533v.9h-2.533v5.202c0,1.003.663,1.648,1.7,1.648h.833v.918h-.969c-1.598,0-2.55-.918-2.55-2.414Z"/>
      <path class="st13" d="M286.625,597.313c0-.408.323-.714.714-.714.408,0,.731.306.731.714s-.323.714-.731.714c-.391,0-.714-.306-.714-.714ZM286.847,599.931h.986v8.669h-.986v-8.669Z"/>
      <path class="st13" d="M289.975,606.22h1.02c0,1.021.901,1.683,2.261,1.683,1.309,0,2.176-.629,2.176-1.547,0-2.227-5.321-1.104-5.321-4.147,0-1.495,1.224-2.481,3.077-2.481,1.887,0,3.128.986,3.128,2.481h-1.02c0-.952-.85-1.581-2.125-1.581-1.224,0-2.04.596-2.04,1.479,0,2.192,5.32,1.07,5.32,4.147,0,1.529-1.275,2.55-3.195,2.55-1.989,0-3.281-1.037-3.281-2.584Z"/>
    </g>
  </g>
</svg>